<?xml version="1.0" encoding="UTF-8" standalone="no"?>
<!DOCTYPE svg PUBLIC "-//W3C//DTD SVG 1.1//EN" "http://www.w3.org/Graphics/SVG/1.1/DTD/svg11.dtd">
<svg width="100%" height="100%" viewBox="0 0 1080 1080" version="1.1" xmlns="http://www.w3.org/2000/svg" xmlns:xlink="http://www.w3.org/1999/xlink" xml:space="preserve" xmlns:serif="http://www.serif.com/" style="fill-rule:evenodd;clip-rule:evenodd;stroke-linejoin:round;stroke-miterlimit:2;">
    <path d="M73.358,615.396C73.358,615.396 31.245,76.075 540,110.038C576.856,88.539 1093.46,156.868 999.849,614.038C999.849,614.038 948.226,978.113 509.434,974.038C509.434,974.038 145.358,1002.57 73.358,615.396Z" style="fill:white;"/>
    <g transform="matrix(0.891344,0,0,0.891344,-2096.72,201.564)">
        <g id="path1" transform="matrix(5.4483,0,0,5.4483,-22571,-3609.44)">
            <path d="M4737.44,784.77C4737.11,784.245 4736.75,784.138 4736.16,784.391C4734.87,784.942 4733.84,785.071 4733.84,784.681C4733.84,784.485 4732.59,784.354 4731.05,784.39C4729.51,784.426 4728.17,784.325 4728.07,784.165C4727.97,784.005 4727.33,783.939 4726.65,784.019C4725.46,784.156 4724.61,783.639 4724.47,782.699C4724.44,782.465 4724.04,782.319 4723.58,782.375C4723.01,782.445 4722.76,782.218 4722.76,781.638C4722.76,781.107 4722.38,780.705 4721.73,780.542C4721.17,780.4 4720.27,779.822 4719.74,779.256C4719.21,778.69 4718.58,778.227 4718.34,778.227C4717.63,778.227 4714.64,774.697 4714.37,773.542C4714.23,772.957 4713.77,772.094 4713.35,771.626C4712.45,770.638 4710.84,767.236 4710.83,766.302C4710.82,765.95 4710.57,765.184 4710.27,764.598C4709.51,763.111 4709.33,759.913 4710.01,759.913C4710.3,759.913 4710.41,759.786 4710.25,759.631C4710.1,759.477 4709.3,759.71 4708.48,760.15C4707.14,760.874 4706.95,760.886 4706.46,760.278C4705.69,759.321 4704.26,758.863 4704.57,759.673C4704.71,760.052 4704.48,760.398 4703.98,760.559C4703.52,760.703 4703.15,761.001 4703.15,761.219C4703.15,761.438 4702.86,761.616 4702.51,761.616C4702.15,761.616 4701.87,761.897 4701.87,762.24C4701.87,763.013 4700.67,763.671 4697.53,764.619L4695.11,765.352L4692.91,764.266C4691.71,763.669 4690.2,762.508 4689.58,761.686C4688.59,760.396 4688.43,759.753 4688.37,756.965C4688.34,755.189 4688.25,753.545 4688.18,753.311C4688.06,752.898 4688.14,752.558 4689.16,749.16C4689.56,747.819 4689.52,747.44 4688.93,746.784C4688.54,746.355 4688.22,745.814 4688.22,745.583C4688.22,745.352 4687.51,744.824 4686.64,744.408C4685.77,743.993 4684.8,743.287 4684.48,742.839C4684.17,742.391 4683.67,742.024 4683.37,742.024C4683.07,742.024 4682.58,741.572 4682.28,741.019C4681.99,740.466 4680.9,739.48 4679.87,738.828C4678.84,738.175 4677.99,737.493 4677.99,737.31C4677.99,737.128 4677.36,736.771 4676.58,736.516C4675.81,736.261 4674.25,735.11 4673.11,733.958C4671.98,732.807 4670.64,731.755 4670.15,731.62C4669.65,731.486 4668.6,730.513 4667.81,729.459C4667.02,728.405 4666.2,727.543 4665.99,727.543C4665.19,727.543 4655.03,717.014 4653.87,714.978C4653.2,713.807 4652.49,712.781 4652.29,712.698C4652.09,712.616 4651.43,712.089 4650.83,711.527C4650.22,710.966 4649.57,710.506 4649.37,710.506C4649.17,710.506 4648.62,709.73 4648.13,708.782C4647.04,706.641 4645.55,705.92 4644.98,707.252C4643.56,710.57 4642.24,714.659 4642,716.525C4641.75,718.455 4641.2,720.094 4640.57,720.82C4640.21,721.242 4640.03,722.011 4640.15,722.641C4640.28,723.342 4640.13,723.859 4639.71,724.09C4638.9,724.543 4639.47,725.561 4640.35,725.225C4641.18,724.907 4644.15,725.707 4644.83,726.43C4645.11,726.737 4645.69,726.899 4646.11,726.79C4646.66,726.646 4646.86,726.839 4646.86,727.493C4646.86,728.585 4647.23,728.643 4647.94,727.666C4648.39,727.058 4648.59,727.029 4649.15,727.489C4649.51,727.793 4650.01,727.919 4650.26,727.768C4650.5,727.616 4650.7,727.696 4650.7,727.944C4650.7,728.192 4650.97,728.395 4651.3,728.395C4652.06,728.395 4656.49,732.819 4657.8,734.89C4658.36,735.769 4658.97,736.487 4659.17,736.487C4659.76,736.487 4661.79,740.574 4661.79,741.762C4661.79,742.681 4661.58,742.885 4660.61,742.926L4659.44,742.977L4660.72,743.248C4661.84,743.485 4662.02,743.723 4662.14,745.171C4662.25,746.527 4662.15,746.777 4661.6,746.566C4661.24,746.426 4660.94,746.48 4660.94,746.687C4660.94,746.895 4661.11,747.128 4661.31,747.206C4661.52,747.284 4661.81,748.307 4661.96,749.478C4662.2,751.32 4662.09,751.837 4661.13,753.311C4660.52,754.248 4660.12,754.689 4660.24,754.291C4660.4,753.781 4660.28,753.639 4659.84,753.808C4659.33,754.003 4659.31,754.172 4659.74,754.686C4660.53,755.637 4660.63,757.365 4659.94,758.152C4659.61,758.535 4659.1,759.602 4658.8,760.523C4658.5,761.445 4657.47,763.197 4656.51,764.416C4653.53,768.177 4653.26,768.583 4653.26,769.278C4653.26,770.171 4650.99,771.483 4649.99,771.161C4649.37,770.959 4649.34,770.997 4649.82,771.34C4650.33,771.699 4650.34,771.889 4649.88,772.445C4649.57,772.814 4649.14,773.116 4648.93,773.116C4648.72,773.116 4647.87,773.787 4647.05,774.607C4646.23,775.427 4645.2,776.098 4644.77,776.098C4644.33,776.098 4643.85,776.405 4643.71,776.781C4643.51,777.292 4643.02,777.423 4641.74,777.302C4640.81,777.213 4640.04,777.289 4640.04,777.471C4640.04,777.653 4639.69,777.801 4639.25,777.801C4638.81,777.801 4637.99,778.269 4637.41,778.84C4636.69,779.567 4635.68,779.968 4634.05,780.175C4632.77,780.337 4631.49,780.658 4631.2,780.887C4630.91,781.116 4630.39,781.195 4630.04,781.061C4629.69,780.928 4629.15,781.079 4628.83,781.397C4628.18,782.045 4622.56,781.817 4622.56,781.142C4622.56,780.936 4622.1,780.883 4621.53,781.026C4620.75,781.221 4620.26,781.017 4619.56,780.215C4619.05,779.625 4618.37,779.242 4618.06,779.362C4617.66,779.515 4617.51,779.234 4617.57,778.417C4617.65,777.357 4617.46,777.198 4615.42,776.621C4613.09,775.964 4612.9,775.722 4613.61,774.395C4613.95,773.764 4613.86,773.546 4613.22,773.341C4612.77,773.199 4611.87,772.372 4611.22,771.502C4610.56,770.633 4609.88,769.819 4609.7,769.694C4609.01,769.212 4607.64,765.46 4607.65,764.104C4607.67,762.051 4607.47,760.762 4606.85,758.975C4606.46,757.833 4606.43,757.166 4606.76,756.554C4607.01,756.09 4607.21,755.229 4607.21,754.642C4607.21,754.055 4607.42,753.449 4607.66,753.296C4607.91,753.142 4608.08,752.604 4608.03,752.099C4607.98,751.594 4608.08,750.852 4608.26,750.448C4608.43,750.045 4608.63,748.799 4608.69,747.68C4608.86,744.801 4609.76,742.639 4611.14,741.824C4611.8,741.439 4612.33,740.925 4612.33,740.682C4612.33,739.184 4619,731.071 4620.48,730.773C4621.85,730.496 4622.85,729.88 4624.11,728.54C4625.07,727.517 4625.82,727.117 4626.78,727.117C4627.51,727.117 4628.11,726.967 4628.11,726.785C4628.11,726.207 4630.78,725.393 4633.56,725.122C4635.03,724.979 4636.32,724.716 4636.43,724.537C4636.55,724.358 4636.73,723.296 4636.84,722.177C4637.08,719.862 4637.64,719.01 4638.42,719.791C4638.7,720.072 4639.13,720.302 4639.36,720.302C4639.6,720.302 4639.56,720.075 4639.28,719.791C4638.44,718.958 4638.66,717.411 4639.66,717.094C4640.29,716.894 4640.42,716.677 4640.1,716.359C4639.5,715.76 4639.98,712.135 4640.73,711.527C4641.05,711.268 4641.39,710.501 4641.48,709.823C4641.56,709.145 4641.78,708.254 4641.95,707.844C4642.12,707.434 4642.16,706.834 4642.04,706.509C4641.79,705.86 4642.91,703.995 4643.38,704.284C4643.54,704.383 4643.6,703.428 4643.52,702.161C4643.39,700.062 4643.45,699.858 4644.27,699.858C4644.76,699.858 4645.16,699.594 4645.16,699.272C4645.16,698.949 4645.44,698.448 4645.79,698.159C4646.14,697.869 4646.32,697.462 4646.19,697.255C4646.07,697.047 4646.26,696.877 4646.63,696.877C4646.99,696.877 4647.29,696.685 4647.29,696.451C4647.29,696.217 4647.08,696.025 4646.82,696.025C4646.52,696.025 4646.45,695.668 4646.64,695.067C4646.81,694.54 4646.96,693.69 4646.99,693.178C4647.01,692.666 4647.17,692.329 4647.33,692.43C4647.49,692.531 4647.74,692.317 4647.88,691.954C4648.02,691.592 4647.96,691.4 4647.76,691.528C4647.55,691.656 4647.27,691.465 4647.13,691.103C4646.99,690.74 4647.02,690.527 4647.19,690.629C4647.36,690.731 4647.94,690.651 4648.46,690.452C4649.12,690.202 4649.42,689.74 4649.42,688.966C4649.42,688.116 4649.59,687.905 4650.1,688.1C4650.47,688.242 4650.95,688.359 4651.16,688.359C4651.85,688.359 4651.58,689.144 4650.81,689.39C4650.31,689.547 4650.03,690.128 4649.97,691.122C4649.8,693.74 4649.63,694.949 4649.37,695.386C4649.23,695.621 4648.86,696.723 4648.54,697.835C4647.99,699.752 4647.59,700.258 4647.18,699.539C4647.09,699.363 4647.1,699.507 4647.2,699.858C4647.32,700.21 4647.38,700.916 4647.36,701.427C4647.32,702.084 4647.58,702.396 4648.26,702.492C4648.87,702.578 4649.26,702.972 4649.35,703.585C4649.43,704.195 4649.78,704.543 4650.29,704.543C4650.84,704.543 4651.02,704.334 4650.86,703.905C4650.72,703.553 4650.82,703.266 4651.08,703.266C4651.34,703.266 4651.56,703.649 4651.56,704.118C4651.56,704.586 4651.77,704.969 4652.03,704.969C4652.29,704.969 4652.39,704.692 4652.26,704.352C4652.1,703.943 4652.23,703.814 4652.63,703.969C4652.97,704.097 4654.08,703.795 4655.11,703.298C4656.91,702.431 4661.61,702.09 4661.13,702.862C4661.03,703.035 4661.23,703.286 4661.58,703.421C4661.93,703.555 4662.21,703.479 4662.21,703.252C4662.21,703.025 4662.52,702.84 4662.9,702.84C4663.38,702.84 4663.52,702.58 4663.37,701.988C4663.18,701.273 4663.36,701.136 4664.45,701.136L4665.76,701.136L4664.79,701.975L4663.82,702.813L4665.14,702.72C4666.17,702.648 4666.41,702.466 4666.24,701.906C4666.07,701.385 4666.24,701.203 4666.85,701.249C4667.32,701.284 4667.6,701.465 4667.49,701.65C4667.37,701.836 4667.5,701.988 4667.76,701.988C4668.02,701.988 4668.1,702.201 4667.94,702.461C4667.52,703.142 4668.64,703.703 4669.51,703.242C4670.03,702.963 4670.52,703.089 4671.23,703.684L4672.23,704.515L4671.06,704.529C4670.42,704.537 4669.89,704.352 4669.89,704.118C4669.89,703.883 4669.7,703.692 4669.46,703.692C4669.23,703.692 4669.04,703.979 4669.04,704.331C4669.04,704.682 4668.76,704.969 4668.42,704.969C4667.49,704.969 4667.22,704.209 4668.07,703.986C4668.78,703.801 4668.78,703.788 4668.08,703.741C4667.67,703.714 4667.32,703.452 4667.31,703.159C4667.29,702.866 4667.11,703.04 4666.91,703.545C4666.47,704.626 4664.34,705.222 4663.16,704.592C4662.67,704.327 4662.2,704.311 4661.96,704.549C4661.38,705.131 4659.66,704.549 4659.66,703.77C4659.66,703.245 4659.55,703.209 4659.15,703.606C4658.87,703.888 4658.18,704.118 4657.63,704.118C4657.08,704.118 4656.74,704.3 4656.88,704.524C4657.02,704.747 4656.31,705.133 4655.3,705.383C4654.3,705.632 4652.92,705.978 4652.24,706.153L4650.99,706.47L4654.02,709.498C4655.68,711.163 4657.34,713.221 4657.69,714.071C4658.05,714.922 4658.59,715.617 4658.9,715.617C4659.42,715.617 4660.94,717.049 4660.94,717.539C4660.94,718.145 4662.72,719.396 4663.28,719.182C4663.63,719.046 4663.92,719.1 4663.92,719.303C4663.92,719.956 4666.09,722.033 4666.51,721.777C4666.73,721.641 4666.93,721.877 4666.96,722.3C4666.98,722.724 4667.03,723.358 4667.06,723.71C4667.1,724.068 4667.45,724.294 4667.87,724.223C4668.28,724.154 4668.61,724.363 4668.61,724.688C4668.61,725.012 4669.1,725.5 4669.7,725.773C4670.3,726.046 4670.68,726.46 4670.53,726.693C4670.39,726.926 4670.46,727.117 4670.69,727.117C4670.93,727.117 4671.75,727.692 4672.52,728.395C4673.29,729.098 4674.16,729.673 4674.47,729.673C4674.76,729.673 4675.01,729.947 4675.01,730.283C4675.01,730.618 4675.39,731.015 4675.86,731.163C4676.33,731.312 4676.72,731.592 4676.72,731.785C4676.72,731.978 4677.15,732.247 4677.67,732.382C4678.57,732.611 4681.17,734.667 4684.08,737.446C4684.76,738.09 4685.53,738.62 4685.81,738.624C4686.08,738.628 4686.78,739.126 4687.35,739.729C4687.93,740.333 4689.41,741.475 4690.65,742.266L4692.9,743.706L4694.81,742.885C4696.29,742.251 4697.37,742.112 4699.57,742.27C4702.38,742.473 4702.41,742.465 4703.95,740.883C4705.3,739.496 4705.5,739.015 4705.53,737.144C4705.56,734.854 4706.51,731.946 4707.47,731.194C4707.79,730.943 4708.12,730.258 4708.2,729.673C4708.54,727.091 4710.03,722.637 4710.83,721.788C4711.31,721.278 4711.59,720.574 4711.46,720.224C4711.32,719.874 4711.51,719.343 4711.87,719.045C4712.23,718.746 4712.42,718.334 4712.29,718.129C4711.9,717.498 4713.71,713.914 4714.42,713.914C4714.79,713.914 4715.09,713.618 4715.09,713.258C4715.09,712.897 4715.49,712.053 4715.99,711.382C4716.49,710.711 4717.04,709.425 4717.22,708.524C4717.39,707.623 4717.63,706.599 4717.74,706.247C4717.84,705.896 4717.85,705.75 4717.76,705.924C4717.66,706.098 4717.23,706.057 4716.82,705.833C4716.4,705.609 4715.96,705.518 4715.85,705.631C4715.73,705.744 4713.87,705.928 4711.69,706.04C4708.44,706.208 4707.79,706.139 4707.98,705.65C4708.13,705.248 4707.81,704.999 4706.98,704.877C4706.3,704.778 4705.85,704.861 4705.98,705.061C4706.1,705.261 4705.66,705.322 4705,705.198C4704.33,705.074 4703.24,705.197 4702.56,705.472C4701.51,705.898 4701.25,705.861 4700.78,705.224C4700.33,704.604 4700.07,704.562 4699.3,704.976C4698.78,705.251 4697.91,705.389 4697.35,705.282C4696.7,705.159 4696.33,705.288 4696.33,705.63C4696.33,706.191 4696.11,706.189 4694.02,705.612C4692.86,705.291 4692.83,705.233 4693.57,704.693C4694.29,704.164 4694.25,704.118 4693.02,704.118C4692.29,704.118 4691.57,704.309 4691.42,704.543C4691.28,704.778 4691.38,704.969 4691.64,704.969C4691.9,704.969 4692.01,705.146 4691.87,705.362C4691.59,705.812 4684.92,705.681 4682.68,705.182C4681.86,704.999 4680.97,704.673 4680.69,704.458C4680.39,704.219 4679.55,704.24 4678.53,704.513C4676.4,705.088 4672.96,704.939 4672.7,704.26C4672.57,703.94 4672.73,703.827 4673.11,703.972C4673.45,704.102 4673.73,703.997 4673.73,703.737C4673.73,703.478 4673.4,703.237 4672.98,703.201C4671.6,703.08 4671.39,703.022 4670.53,702.518C4670.06,702.241 4669.91,702.008 4670.19,702.001C4670.47,701.994 4670.78,702.132 4670.89,702.307C4671.26,702.896 4678.47,702.602 4678.85,701.983C4679.14,701.517 4679.38,701.531 4680.2,702.058C4681.82,703.103 4682.71,703.168 4687.39,702.584C4693.86,701.779 4694.13,701.797 4694.45,703.053C4694.59,703.638 4694.9,704.118 4695.12,704.118C4695.35,704.118 4695.41,704.549 4695.27,705.076C4695.02,705.976 4695.04,705.987 4695.63,705.263C4695.97,704.838 4696.2,704.025 4696.13,703.456C4696.07,702.886 4696.23,702.245 4696.49,702.03C4696.99,701.617 4701.44,702.308 4701.44,702.799C4701.44,702.949 4703.58,702.908 4706.19,702.707C4711,702.337 4711.28,702.395 4711.8,703.874C4711.88,704.091 4712.18,704.12 4712.47,703.939C4712.88,703.687 4712.84,703.491 4712.31,703.103C4711.69,702.649 4711.71,702.596 4712.47,702.596C4712.94,702.596 4713.24,702.727 4713.14,702.887C4713.04,703.046 4713.75,703.252 4714.71,703.343L4716.45,703.509L4715.24,702.538C4713.81,701.393 4714.53,701.234 4716.29,702.307C4716.99,702.737 4717.43,703.323 4717.33,703.692C4717.18,704.258 4717.2,704.258 4717.6,703.694C4717.98,703.143 4718.13,703.172 4718.72,703.907C4719.38,704.735 4719.39,704.732 4718.93,703.798C4718.68,703.271 4718.26,702.84 4718.01,702.84C4717.69,702.84 4717.68,702.674 4717.98,702.307C4718.45,701.733 4718.62,700.707 4718.55,698.981C4718.5,698.001 4718.25,697.844 4716.05,697.429C4706.39,695.611 4703.63,694.754 4702.15,693.113C4701.45,692.342 4701.43,692.145 4701.97,691.369C4702.31,690.887 4702.68,690.589 4702.8,690.706C4703.11,691.02 4705.81,690.04 4706.67,689.297C4707.34,688.719 4707.5,688.729 4708.24,689.401C4708.92,690.013 4709.48,690.093 4711.33,689.844C4712.58,689.676 4713.79,689.423 4714.02,689.282C4715.07,688.646 4720.34,689.322 4722.69,690.392C4725.58,691.715 4726.57,692.792 4726.59,694.641C4726.6,695.894 4726.48,696.025 4725.34,696.025C4724.21,696.025 4724.02,696.223 4723.59,697.821C4723.24,699.119 4723.23,699.661 4723.57,699.774C4723.83,699.861 4724.04,700.933 4724.04,702.208C4724.04,704.138 4723.9,704.529 4723.16,704.766C4722.54,704.962 4722.36,705.258 4722.57,705.753C4722.86,706.453 4722.95,706.857 4723.45,709.548C4723.6,710.309 4723.88,710.932 4724.08,710.932C4724.52,710.932 4725.8,713.293 4725.51,713.577C4725.41,713.685 4725.7,714.882 4726.16,716.236C4726.63,717.591 4726.9,718.888 4726.75,719.12C4726.44,719.622 4727.39,722.803 4728.12,723.71C4729.32,725.211 4730.32,727.782 4730,728.608C4729.78,729.193 4729.94,729.742 4730.51,730.362C4730.96,730.859 4731.48,731.817 4731.67,732.492C4731.93,733.44 4732.24,733.705 4733.03,733.658C4733.6,733.624 4736.03,733.479 4738.44,733.336C4741.52,733.152 4743.67,733.256 4745.69,733.685C4747.27,734.02 4749.37,734.408 4750.37,734.545C4752.61,734.853 4754.43,736.3 4754.06,737.472C4753.88,738.016 4753.96,738.198 4754.27,738.006C4754.53,737.846 4754.74,737.371 4754.74,736.95C4754.74,736.399 4755.44,736.853 4757.23,738.572C4759.72,740.953 4761.23,743.764 4761.05,745.674C4761,746.159 4761.27,747.213 4761.64,748.017C4762.01,748.82 4762.45,750.582 4762.61,751.933C4762.77,753.283 4763.03,754.308 4763.19,754.211C4763.35,754.114 4763.49,754.761 4763.5,755.649C4763.51,756.801 4763.36,757.203 4762.97,757.052C4762.66,756.935 4762.41,757.032 4762.41,757.266C4762.41,757.5 4762.73,757.813 4763.11,757.961C4764.27,758.404 4763.67,765.42 4762.18,768.914C4761.55,770.405 4761,772.057 4760.97,772.584C4760.94,773.111 4760.78,773.542 4760.6,773.542C4760.43,773.542 4760.28,773.808 4760.28,774.133C4760.28,774.458 4759.69,775.177 4758.96,775.73C4755.98,778.002 4754.93,778.893 4754.41,779.577C4753.67,780.582 4747.63,784.188 4747.28,783.839C4747.12,783.681 4746.74,783.893 4746.44,784.309C4746,784.909 4745.06,785.111 4741.89,785.284C4738.43,785.473 4737.84,785.405 4737.44,784.77L4737.44,784.77ZM4740.4,781.635C4743.1,781.635 4748.14,778.859 4751.41,775.565C4752.98,773.984 4754.14,772.69 4753.98,772.69C4753.82,772.69 4754.12,772.392 4754.64,772.027C4755.16,771.663 4755.59,771.146 4755.59,770.879C4755.59,770.612 4756.05,769.712 4756.62,768.88C4757.27,767.927 4757.73,766.536 4757.85,765.125C4757.96,763.892 4758.24,762.647 4758.47,762.357C4759.07,761.605 4759.44,757.726 4758.88,758.07C4758.63,758.224 4758.57,758.133 4758.74,757.858C4758.9,757.592 4758.84,757.007 4758.6,756.556C4758.3,755.99 4758.3,755.328 4758.62,754.409C4758.97,753.407 4758.96,752.924 4758.56,752.447C4758.25,752.07 4758.13,751.224 4758.27,750.362C4758.45,749.287 4758.31,748.73 4757.73,748.209C4756.84,747.403 4756.32,745.858 4756.94,745.858C4757.17,745.858 4757.05,745.556 4756.68,745.188C4756.32,744.82 4756.01,744.33 4756.01,744.098C4756.01,743.867 4755.87,743.768 4755.69,743.878C4755.14,744.22 4754.04,743.149 4753.61,741.842C4753.38,741.156 4752.82,740.389 4752.36,740.138C4751.91,739.887 4751.4,739.49 4751.22,739.256C4751.03,738.996 4750.91,739.05 4750.9,739.393C4750.9,739.703 4750.56,739.893 4750.15,739.814C4749.08,739.608 4749.19,738.367 4750.26,738.551C4750.73,738.632 4750.97,738.558 4750.81,738.387C4750.28,737.854 4748.34,737.813 4748.33,738.335C4748.33,738.655 4748.2,738.628 4747.97,738.261C4747.77,737.948 4747.43,737.73 4747.23,737.775C4746.33,737.972 4742.66,737.327 4742.12,736.88C4741.22,736.134 4734.48,737.467 4734.09,738.466C4733.98,738.768 4734.15,739.931 4734.48,741.052C4734.82,742.172 4735.12,743.856 4735.16,744.793C4735.26,747.09 4735.94,749.519 4737.13,751.777C4737.66,752.808 4738.11,754.131 4738.11,754.719C4738.11,755.306 4738.55,756.379 4739.08,757.104C4739.62,757.829 4740.38,758.941 4740.78,759.575L4741.51,760.727L4739.98,761.452C4738.69,762.064 4738.4,762.084 4738.09,761.583C4737.88,761.256 4737.09,760.949 4736.31,760.901C4735.54,760.853 4734.62,760.78 4734.27,760.739C4733.92,760.697 4733.32,760.792 4732.94,760.949C4732.45,761.157 4732.11,760.872 4731.71,759.906C4731.4,759.175 4731.04,758.734 4730.9,758.926C4730.76,759.117 4730.17,759.34 4729.58,759.421C4728.99,759.502 4728.46,759.708 4728.4,759.878C4728.14,760.559 4725.63,759.786 4725.41,758.959C4725.23,758.282 4724.93,758.161 4723.87,758.34C4723.14,758.462 4722.16,758.693 4721.69,758.852C4721.1,759.054 4721.01,759.02 4721.4,758.738C4721.83,758.434 4721.6,758.162 4720.48,757.633C4718.64,756.76 4718.01,756.749 4719.13,757.61C4719.98,758.254 4719.98,758.269 4719.16,758.874C4718.26,759.536 4717.06,759.617 4715.74,759.103C4714.95,758.793 4714.96,758.767 4715.85,758.534C4716.89,758.262 4717.14,757.357 4716.17,757.357C4715.3,757.357 4715.04,757.939 4714.81,760.405C4714.61,762.648 4715.54,767.27 4716.62,769.368C4716.95,770.001 4717.22,770.875 4717.22,771.312C4717.22,771.748 4717.79,772.656 4718.49,773.329C4719.2,774.003 4719.77,774.805 4719.77,775.113C4719.77,775.42 4720.11,775.678 4720.52,775.686C4721.37,775.702 4722.74,776.807 4723.44,778.035C4723.71,778.492 4724.19,778.876 4724.51,778.889C4724.84,778.901 4725.72,779.236 4726.47,779.634C4727.22,780.032 4728.52,780.357 4729.37,780.357C4730.21,780.357 4731.5,780.666 4732.23,781.044C4733.14,781.515 4734.13,781.653 4735.37,781.483C4736.75,781.294 4737.23,781.387 4737.42,781.88C4737.61,782.376 4737.86,782.421 4738.5,782.079C4738.96,781.835 4739.81,781.635 4740.4,781.635L4740.4,781.635ZM4743.44,738.617C4743.58,738.383 4743.98,738.191 4744.31,738.191C4744.65,738.191 4744.93,738.383 4744.93,738.617C4744.93,738.851 4744.53,739.043 4744.05,739.043C4743.57,739.043 4743.29,738.851 4743.44,738.617ZM4721.9,778.227C4721.9,777.993 4721.61,777.801 4721.24,777.801C4720.88,777.801 4720.69,777.993 4720.84,778.227C4720.98,778.462 4721.28,778.653 4721.5,778.653C4721.73,778.653 4721.9,778.462 4721.9,778.227ZM4628.11,777.267C4628.68,777.034 4630.65,776.691 4633.01,776.412C4633.48,776.356 4633.96,776.212 4634.07,776.092C4634.19,775.972 4635.34,775.334 4636.63,774.676C4637.92,774.017 4639.98,772.938 4641.22,772.277C4642.45,771.616 4643.45,771.151 4643.45,771.244C4643.45,771.336 4644.25,770.637 4645.23,769.69C4646.21,768.737 4647.27,768.068 4647.59,768.192C4647.91,768.316 4648.3,768.085 4648.44,767.679C4648.59,767.273 4649.84,765.809 4651.23,764.425C4653.43,762.238 4654.21,761.108 4654.81,759.274C4655.58,756.891 4655.94,753.625 4655.96,748.626C4655.98,743.64 4655.84,742.258 4655.11,740.193L4654.23,737.723L4655.56,737.951C4656.73,738.152 4656.67,738.076 4655.03,737.299C4653.56,736.6 4653.23,736.245 4653.4,735.568C4653.57,734.94 4653.46,734.78 4652.99,734.96C4652.64,735.094 4651.65,734.723 4650.78,734.135C4649.92,733.547 4648.11,732.757 4646.76,732.378C4644.2,731.66 4643.97,731.454 4644.82,730.61C4645.4,730.028 4645.44,730.036 4641.84,729.929C4640.37,729.886 4638.97,729.971 4638.73,730.119C4638.37,730.344 4638.11,731.338 4637.94,733.186C4637.93,733.362 4637.61,733.506 4637.23,733.506C4636.65,733.506 4636.59,733.881 4636.85,736.072C4637.05,737.824 4636.98,738.832 4636.64,739.246C4636.36,739.58 4636.26,740.23 4636.4,740.69C4636.55,741.15 4636.47,741.65 4636.22,741.801C4635.98,741.951 4635.78,742.468 4635.78,742.948C4635.78,743.787 4635.74,743.781 4634.91,742.817L4634.03,741.811L4634.72,743.234C4635.62,745.074 4635.22,747.991 4634.03,748.302C4633.18,748.525 4632.9,749.265 4633.68,749.265C4633.96,749.265 4634.01,749.633 4633.82,750.223C4633.65,750.75 4633.47,751.469 4633.44,751.82C4633.2,753.942 4632.67,756.109 4632.32,756.32C4632.11,756.454 4632.04,756.743 4632.17,756.961C4632.31,757.179 4632.23,757.357 4631.99,757.357C4631.76,757.357 4631.61,757.866 4631.65,758.487C4631.71,759.389 4631.49,759.683 4630.56,759.941C4629.91,760.119 4629.38,760.112 4629.38,759.926C4629.38,759.739 4629,759.486 4628.53,759.363C4627.71,759.148 4627.31,758.209 4628.04,758.209C4628.24,758.209 4628.43,756.875 4628.46,755.245C4628.5,753.03 4628.78,751.719 4629.59,750.055C4630.18,748.83 4630.66,747.48 4630.66,747.056C4630.66,746.56 4630.98,746.283 4631.54,746.283C4632.02,746.283 4632.31,746.106 4632.18,745.89C4631.74,745.179 4631.59,742.03 4631.98,741.786C4632.19,741.655 4632.37,741.214 4632.37,740.807C4632.37,740.399 4632.59,739.843 4632.86,739.571C4633.14,739.299 4633.4,738.542 4633.46,737.889C4633.69,735.175 4634.25,732.844 4634.79,732.302C4635.11,731.983 4635.29,731.215 4635.19,730.591C4635.08,729.969 4634.98,729.288 4634.96,729.079C4634.94,728.868 4633.69,728.814 4632.15,728.957C4629.95,729.162 4628.74,729.585 4626.29,731.002C4623.37,732.693 4619.43,736.28 4617.92,738.617C4617.11,739.887 4616.93,740.134 4615.53,741.882C4613.31,744.645 4611.37,750.526 4611.33,754.589C4611.27,760.083 4615.53,771.395 4618.64,773.998C4622.18,776.969 4625.78,778.212 4628.11,777.267L4628.11,777.267ZM4639.5,776.127C4639.47,775.675 4639.3,775.394 4639.12,775.502C4638.94,775.61 4638.91,775.98 4639.04,776.324C4639.38,777.191 4639.58,777.105 4639.5,776.127ZM4642.18,773.993C4642.18,773.491 4641.34,772.953 4641.04,773.258C4640.73,773.563 4641.27,774.394 4641.77,774.394C4641.99,774.394 4642.18,774.214 4642.18,773.993ZM4646.86,772.503C4646.86,772.053 4646.05,771.864 4645.8,772.257C4645.66,772.496 4645.84,772.69 4646.2,772.69C4646.57,772.69 4646.86,772.606 4646.86,772.503ZM4694.19,761.358C4694.19,761.266 4693.9,761.191 4693.55,761.191C4693.2,761.191 4692.91,761.376 4692.91,761.603C4692.91,761.83 4693.2,761.905 4693.55,761.77C4693.9,761.636 4694.19,761.45 4694.19,761.358ZM4656.03,760.339C4655.89,760.104 4656.07,759.913 4656.43,759.913C4656.8,759.913 4657.1,759.739 4657.1,759.527C4657.1,759.314 4656.71,759.241 4656.24,759.363C4655.37,759.592 4655.17,759.979 4655.68,760.481C4656.11,760.91 4656.33,760.821 4656.03,760.339ZM4702.72,758.853C4702.43,758.504 4702.01,758.336 4701.77,758.48C4701.52,758.639 4701.58,758.885 4701.93,759.108C4702.85,759.69 4703.3,759.545 4702.72,758.853ZM4735.97,757.834C4735.97,757.689 4735.58,756.324 4735.1,754.802C4733.7,750.353 4732.65,746.28 4732.12,743.193C4731.85,741.611 4731.45,740.21 4731.24,740.08C4731.03,739.951 4730.86,739.377 4730.86,738.805C4730.86,737.257 4729.71,737.485 4726.79,739.612C4723.56,741.962 4723.22,742.387 4722.83,744.641C4722.51,746.491 4722.51,746.496 4720.69,746.496C4718.94,746.496 4718.82,746.582 4717.72,748.626C4717.09,749.797 4716.25,751.654 4715.86,752.752C4714.97,755.224 4715.34,755.649 4718.58,755.899C4721.51,756.126 4727.44,756.939 4730.48,757.531C4733.24,758.067 4735.98,758.218 4735.97,757.834ZM4709.54,757.595C4709.54,757.492 4709.35,757.289 4709.11,757.144C4708.88,757 4708.69,757.084 4708.69,757.332C4708.69,757.58 4708.88,757.783 4709.11,757.783C4709.35,757.783 4709.54,757.699 4709.54,757.595ZM4706.13,756.08C4706.13,755.845 4706.05,755.654 4705.94,755.654C4705.84,755.654 4705.64,755.845 4705.49,756.08C4705.35,756.314 4705.43,756.505 4705.68,756.505C4705.93,756.505 4706.13,756.314 4706.13,756.08ZM4760.9,756.109C4761.03,755.891 4760.98,755.612 4760.78,755.489C4760.58,755.366 4760.42,755.544 4760.42,755.885C4760.42,756.603 4760.55,756.666 4760.9,756.109ZM4710.82,754.79C4710.82,754.432 4711.11,753.728 4711.46,753.224C4711.81,752.721 4712.14,751.816 4712.19,751.213C4712.24,750.61 4712.45,750.117 4712.65,750.117C4712.85,750.117 4712.89,749.728 4712.73,749.252C4712.45,748.347 4713.97,746.305 4714.94,746.291C4715.21,746.287 4715.86,745.405 4716.38,744.331C4716.9,743.257 4717.79,741.867 4718.37,741.243C4718.94,740.618 4719.73,739.755 4720.12,739.324C4721.01,738.356 4727.33,735.21 4728.39,735.21C4729.21,735.21 4729.17,734.233 4728.25,731.778C4728.02,731.179 4727.8,729.837 4727.75,728.796C4727.69,727.631 4727.43,726.811 4727.06,726.661C4726.73,726.527 4726.4,726.144 4726.33,725.809C4726.27,725.474 4725.73,723.922 4725.14,722.358C4724.56,720.795 4724.01,719.07 4723.94,718.525C4723.86,717.98 4723.66,717.307 4723.48,717.029C4723.31,716.751 4723.27,715.744 4723.38,714.793C4723.51,713.814 4723.42,713.062 4723.19,713.062C4722.66,713.062 4721.37,710.594 4721.66,710.131C4721.78,709.938 4721.6,709.416 4721.27,708.972C4720.7,708.233 4720.65,708.227 4720.64,708.909C4720.63,709.319 4720.47,709.654 4720.27,709.654C4719.95,709.654 4715.3,718.463 4715.3,719.071C4715.3,719.215 4714.79,720.461 4714.16,721.841C4712.94,724.557 4709.92,733.907 4709.71,735.635C4709.64,736.221 4709.29,737.515 4708.94,738.51C4708.59,739.506 4708.41,740.32 4708.55,740.32C4708.68,740.32 4708.57,740.588 4708.3,740.916C4707.82,741.496 4707.61,742.158 4707.12,744.793C4706.69,747.08 4706.72,747.759 4707.34,748.741C4708.03,749.841 4707.78,753.028 4706.98,753.528C4706.6,753.762 4706.6,754.033 4706.99,754.657C4707.65,755.707 4710.82,755.817 4710.82,754.79L4710.82,754.79ZM4631.52,753.499C4631.52,753.044 4631.35,752.672 4631.14,752.672C4630.64,752.672 4630.17,753.918 4630.48,754.421C4630.85,755.022 4631.52,754.43 4631.52,753.499ZM4658.16,753.524C4658.31,753.29 4658.3,752.886 4658.14,752.627C4657.85,752.163 4657.12,752.873 4657.11,753.63C4657.1,754.097 4657.86,754.021 4658.16,753.524L4658.16,753.524ZM4660.51,752.672C4660.51,752.438 4660.32,752.246 4660.08,752.246C4659.85,752.246 4659.66,752.438 4659.66,752.672C4659.66,752.906 4659.85,753.098 4660.08,753.098C4660.32,753.098 4660.51,752.906 4660.51,752.672ZM4706.61,750.633C4706.31,750.53 4705.85,750.649 4705.61,750.897C4705.29,751.213 4705.45,751.268 4706.16,751.083C4706.74,750.932 4706.93,750.739 4706.61,750.633ZM4759.16,749.882C4759.31,749.502 4759.23,749.332 4758.99,749.481C4758.76,749.624 4758.57,749.921 4758.57,750.142C4758.57,750.754 4758.88,750.619 4759.16,749.882ZM4704,748.388C4704,747.905 4703.81,747.629 4703.57,747.774C4703.34,747.919 4703.15,748.313 4703.15,748.651C4703.15,748.989 4703.34,749.265 4703.57,749.265C4703.81,749.265 4704,748.87 4704,748.388ZM4761.13,748.839C4761.13,748.605 4760.93,748.413 4760.68,748.413C4760.43,748.413 4760.35,748.605 4760.49,748.839C4760.64,749.073 4760.84,749.265 4760.94,749.265C4761.05,749.265 4761.13,749.073 4761.13,748.839ZM4660.51,747.987C4660.51,747.753 4660.12,747.561 4659.66,747.561C4659.19,747.561 4658.8,747.375 4658.8,747.149C4658.8,746.922 4658.49,746.857 4658.1,747.004C4657.47,747.246 4657.48,747.327 4658.19,747.843C4659.1,748.512 4660.51,748.599 4660.51,747.987L4660.51,747.987ZM4688.73,744.061C4688.42,743.756 4688.22,743.731 4688.22,743.998C4688.22,744.566 4688.73,745.07 4689.01,744.786C4689.13,744.664 4689,744.339 4688.73,744.061L4688.73,744.061ZM4755.9,741.767C4755.76,741.625 4755.39,741.61 4755.08,741.733C4754.74,741.869 4754.84,741.97 4755.34,741.991C4755.79,742.009 4756.04,741.908 4755.9,741.767L4755.9,741.767ZM4660.75,740.52C4659.91,739.886 4659.23,739.708 4659.23,740.121C4659.23,740.328 4660.86,741.1 4661.36,741.132C4661.48,741.139 4661.2,740.864 4660.75,740.52ZM4658.38,737.694C4658.38,737.499 4658.09,737.339 4657.74,737.339C4657.39,737.339 4657.1,737.499 4657.1,737.694C4657.1,737.889 4657.39,738.049 4657.74,738.049C4658.09,738.049 4658.38,737.889 4658.38,737.694ZM4635.58,736.509C4635.42,736.255 4635.1,736.17 4634.85,736.321C4634.57,736.497 4634.61,736.717 4634.98,736.943C4635.66,737.366 4635.97,737.142 4635.58,736.509ZM4675.01,733.608C4675.01,733.43 4674.57,733.02 4674.05,732.696C4673.09,732.109 4673.09,732.111 4673.9,733.02C4674.77,733.995 4675.01,734.122 4675.01,733.608ZM4671.81,729.673C4671.66,729.438 4671.35,729.247 4671.12,729.247C4670.88,729.247 4670.81,729.438 4670.95,729.673C4671.1,729.907 4671.41,730.098 4671.65,730.098C4671.88,730.098 4671.95,729.907 4671.81,729.673ZM4639.62,722.351C4639.62,721.791 4638.65,722.142 4638.44,722.778C4638.33,723.09 4638.53,723.185 4638.94,723.026C4639.31,722.883 4639.62,722.58 4639.62,722.351ZM4663.92,721.154C4663.92,720.92 4663.73,720.728 4663.49,720.728C4663.26,720.728 4663.07,720.92 4663.07,721.154C4663.07,721.388 4663.26,721.58 4663.49,721.58C4663.73,721.58 4663.92,721.388 4663.92,721.154ZM4644.31,707.099C4644.31,706.865 4644.1,706.673 4643.86,706.673C4643.61,706.673 4643.52,706.865 4643.67,707.099C4643.81,707.333 4644.02,707.525 4644.12,707.525C4644.22,707.525 4644.31,707.333 4644.31,707.099ZM4648.57,706.247C4648.57,706.013 4648.37,705.821 4648.12,705.821C4647.87,705.821 4647.79,706.013 4647.93,706.247C4648.08,706.481 4648.28,706.673 4648.38,706.673C4648.49,706.673 4648.57,706.481 4648.57,706.247ZM4690.35,704.356C4690.35,704.252 4690.16,704.049 4689.93,703.905C4689.69,703.76 4689.5,703.844 4689.5,704.092C4689.5,704.34 4689.69,704.543 4689.93,704.543C4690.16,704.543 4690.35,704.459 4690.35,704.356ZM4689.07,703.95C4689.07,703.858 4688.78,703.669 4688.41,703.529C4688.03,703.384 4687.86,703.455 4688.01,703.696C4688.26,704.101 4689.07,704.295 4689.07,703.95ZM4699.31,702.84C4699.31,702.605 4699.11,702.414 4698.86,702.414C4698.61,702.414 4698.52,702.605 4698.67,702.84C4698.81,703.074 4699.02,703.266 4699.12,703.266C4699.22,703.266 4699.31,703.074 4699.31,702.84ZM4718.49,695.599C4718.49,695.365 4718.19,695.173 4717.83,695.173C4717.46,695.173 4717.28,695.365 4717.43,695.599C4717.57,695.833 4717.87,696.025 4718.09,696.025C4718.31,696.025 4718.49,695.833 4718.49,695.599ZM4713.26,694.916C4713.12,694.774 4712.75,694.759 4712.44,694.882C4712.11,695.018 4712.21,695.119 4712.7,695.14C4713.15,695.158 4713.4,695.057 4713.26,694.916L4713.26,694.916ZM4695.73,719.373C4695.86,719.174 4696.14,719.121 4696.35,719.256C4696.91,719.601 4696.85,719.735 4696.13,719.735C4695.79,719.735 4695.61,719.572 4695.73,719.373ZM4624.35,698.922C4624.07,698.641 4623.84,698.018 4623.84,697.537C4623.84,697.057 4623.43,695.994 4622.93,695.174C4621.85,693.411 4621.68,691.74 4622.53,691.078C4623.05,690.675 4623.05,690.395 4622.57,689.229C4622.13,688.174 4622.12,687.781 4622.51,687.54C4622.79,687.367 4622.91,686.952 4622.78,686.617C4622.55,686.009 4623.62,684.717 4626.56,682.066C4627.41,681.298 4628.11,680.484 4628.11,680.256C4628.11,679.74 4628.39,679.733 4629.31,680.225C4629.91,680.549 4630.03,680.396 4630.03,679.271C4630.03,678.014 4630.14,677.911 4631.94,677.61C4634.68,677.151 4646.02,677.258 4646.94,677.751C4647.37,677.979 4648.66,678.222 4649.82,678.291C4651.32,678.38 4652.36,678.749 4653.44,679.576C4655.06,680.806 4655.32,681.748 4654.4,683.004C4653.9,683.684 4653.72,683.706 4652.82,683.192C4652.26,682.871 4651.54,682.369 4651.22,682.077C4650.52,681.429 4648.15,681.367 4648.15,681.995C4648.15,682.243 4647.97,682.336 4647.75,682.201C4647.53,682.066 4647.23,682.154 4647.08,682.396C4646.93,682.638 4646.64,682.734 4646.44,682.609C4646.24,682.484 4645.95,682.576 4645.81,682.814C4645.64,683.083 4644.86,682.897 4643.75,682.322C4642.77,681.814 4641.63,681.239 4641.22,681.045C4640.07,680.495 4635.81,680.639 4633.27,681.315C4631.87,681.686 4630.43,682.438 4629.62,683.226C4628.88,683.941 4627.98,684.526 4627.62,684.526C4627.17,684.526 4626.97,684.947 4626.97,685.886C4626.97,686.634 4626.76,687.318 4626.49,687.404C4626.23,687.491 4626.13,687.841 4626.26,688.181C4626.66,689.215 4626.67,692.798 4626.28,693.335C4625.97,693.764 4626.8,695.616 4627.67,696.451C4627.79,696.568 4627.89,697.126 4627.88,697.689C4627.87,699.158 4625.44,700.006 4624.35,698.922L4624.35,698.922ZM4649.85,686.987C4649.85,686.76 4650.17,686.029 4650.57,685.363C4651.13,684.403 4651.44,684.235 4652.03,684.553C4652.51,684.81 4652.88,684.8 4653.05,684.527C4653.45,683.882 4654.11,684.015 4654.11,684.739C4654.11,685.138 4653.71,685.377 4653.03,685.377C4652.1,685.377 4652.01,685.487 4652.39,686.203C4652.64,686.658 4652.69,687.115 4652.52,687.22C4651.91,687.581 4649.85,687.4 4649.85,686.987L4649.85,686.987Z" style="fill-rule:nonzero;"/>
        </g>
        <g id="path11" serif:id="path1" transform="matrix(-6.51938,-3.76396,3.69757,-6.40437,32417.3,20007.3)">
            <path d="M4671.54,378.944C4671.42,378.824 4669.99,378.458 4668.37,378.13C4666.74,377.803 4663.97,377.148 4662.21,376.675C4660.46,376.202 4658.73,375.749 4658.39,375.668C4657.58,375.481 4656.67,374.643 4656.67,374.091C4656.67,373.857 4655.65,373.369 4654.4,373.006C4652.35,372.411 4650.7,371.276 4650.7,370.462C4650.7,369.906 4647.95,367.334 4647.06,367.058C4645.73,366.646 4640.88,361.743 4640.2,360.127C4639.88,359.341 4639.42,358.698 4639.19,358.698C4638.95,358.698 4638.76,358.515 4638.76,358.291C4638.76,358.068 4638.33,357.411 4637.81,356.833C4635.89,354.736 4634.93,353.22 4634.93,352.308C4634.93,351.746 4634.6,351.292 4634.1,351.162C4633.65,351.043 4633.07,350.438 4632.81,349.817C4632.56,349.196 4632.08,348.209 4631.75,347.624C4631.14,346.534 4627.99,339.875 4627.14,337.875C4626.56,336.49 4626.4,335.549 4626.36,333.249C4626.34,332.253 4626.18,331.439 4626,331.439C4625.83,331.439 4625.45,330.388 4625.16,329.104C4624.87,327.819 4624.46,326.658 4624.24,326.523C4624.02,326.388 4623.84,325.694 4623.84,324.98C4623.84,324.266 4623.57,322.601 4623.23,321.278C4622.21,317.256 4622.22,299.552 4623.25,294.669C4623.35,294.161 4623.52,293.02 4623.62,292.134C4623.73,291.248 4624.11,290.226 4624.47,289.864C4624.83,289.501 4625.03,289.042 4624.9,288.842C4624.32,287.892 4628.07,278.348 4629.21,277.913C4629.6,277.764 4629.74,277.369 4629.58,276.871C4629.44,276.41 4629.53,276.07 4629.81,276.07C4630.07,276.07 4630.17,275.878 4630.02,275.644C4629.88,275.409 4629.96,275.218 4630.21,275.218C4630.46,275.218 4630.64,275.074 4630.61,274.898C4630.43,273.71 4630.84,273.024 4632.07,272.513C4633.13,272.068 4633.61,271.498 4634.06,270.144C4634.39,269.164 4634.87,268.227 4635.13,268.063C4635.39,267.899 4636.13,266.867 4636.76,265.769C4637.4,264.672 4638.31,263.649 4638.8,263.495C4639.33,263.327 4639.59,262.976 4639.45,262.615C4639.31,262.263 4639.48,262.014 4639.86,262.014C4640.21,262.014 4640.61,261.727 4640.74,261.375C4640.88,261.024 4641.25,260.737 4641.57,260.737C4641.88,260.737 4642.34,260.374 4642.58,259.931C4642.81,259.488 4643.84,258.636 4644.86,258.038C4645.89,257.44 4647.18,256.284 4647.74,255.469C4648.3,254.653 4648.92,254.086 4649.12,254.209C4649.32,254.331 4649.8,254.148 4650.2,253.801C4650.59,253.454 4651.35,253.039 4651.88,252.879C4652.4,252.718 4652.83,252.413 4652.83,252.201C4652.83,251.989 4653.78,251.41 4654.94,250.913C4656.09,250.416 4657.14,249.74 4657.27,249.41C4657.39,249.081 4657.78,248.811 4658.13,248.811C4658.48,248.811 4658.91,248.556 4659.1,248.245C4659.29,247.934 4660.89,246.9 4662.66,245.949C4664.43,244.998 4666.61,243.72 4667.51,243.109C4668.41,242.498 4669.94,241.787 4670.91,241.529C4671.87,241.272 4672.85,240.911 4673.09,240.728C4673.64,240.296 4678.38,238.84 4679.48,238.762C4680.66,238.679 4682.25,238.12 4682.25,237.791C4682.25,237.641 4683.1,237.585 4684.13,237.667C4685.16,237.749 4686.41,237.594 4686.92,237.324C4687.43,237.053 4689.17,236.721 4690.79,236.585C4692.7,236.425 4694.01,236.083 4694.52,235.612C4695.02,235.145 4695.59,234.992 4696.13,235.184C4696.59,235.348 4697.44,235.397 4698.03,235.292C4698.61,235.188 4699.96,235.107 4701.01,235.113C4702.07,235.119 4704.15,235.129 4705.63,235.136C4707.28,235.144 4709.35,235.51 4710.96,236.076C4713.81,237.081 4717.51,238.891 4717.72,239.386C4717.88,239.753 4725.2,241.69 4726.28,241.65C4726.7,241.634 4726.93,241.802 4726.79,242.022C4726.66,242.242 4726.94,242.422 4727.42,242.422C4727.9,242.422 4728.3,242.595 4728.3,242.806C4728.3,243.328 4730.74,244.144 4731.47,243.866C4731.79,243.743 4732.41,244.014 4732.84,244.468C4733.27,244.922 4734.4,245.531 4735.34,245.822C4737.69,246.552 4739.81,247.596 4739.81,248.026C4739.81,248.223 4740.02,248.385 4740.27,248.385C4741.38,248.385 4743.73,250.822 4745.63,253.941C4746.77,255.805 4747.84,257.329 4748.02,257.329C4748.19,257.329 4748.34,257.556 4748.34,257.834C4748.34,258.855 4750.14,262.014 4750.72,262.014C4751.07,262.014 4751.32,262.435 4751.32,262.994C4751.32,263.533 4751.48,264.156 4751.68,264.378C4751.88,264.601 4752.37,265.741 4752.78,266.912C4753.2,268.084 4754.38,270.731 4755.41,272.794C4756.45,274.858 4757.29,276.745 4757.29,276.986C4757.29,277.228 4757.68,277.913 4758.15,278.509C4758.61,279.104 4759,280.034 4759,280.574C4759,281.114 4759.19,281.675 4759.43,281.819C4759.66,281.964 4759.85,282.497 4759.85,283.004C4759.85,283.511 4760.23,285.176 4760.69,286.706C4762.12,291.446 4762.88,294.528 4763.06,296.301C4763.16,297.238 4763.43,299.316 4763.68,300.918C4763.92,302.521 4764.13,304.342 4764.15,304.965C4764.16,305.587 4764.19,307.247 4764.22,308.652C4764.29,311.907 4763.89,315.553 4763.3,317.092C4763.04,317.751 4762.84,318.865 4762.84,319.566C4762.84,320.298 4762.65,320.73 4762.41,320.581C4762.17,320.431 4762.1,320.604 4762.25,320.989C4762.48,321.593 4762.16,322.807 4761.11,325.263C4759.96,327.934 4759.42,329.494 4759.42,330.126C4759.42,330.519 4758.47,332.299 4757.29,334.083C4756.12,335.867 4755.16,337.503 4755.16,337.718C4755.16,337.934 4754.7,338.355 4754.14,338.654C4753.58,338.954 4752.9,339.705 4752.62,340.323C4752.34,340.942 4751.8,341.927 4751.42,342.513C4751.03,343.098 4750.68,343.814 4750.63,344.102C4750.51,344.877 4748.65,347.118 4747.91,347.387C4747.19,347.648 4744.93,349.523 4744.93,349.858C4744.93,349.978 4743.06,352.001 4740.77,354.354C4736.4,358.847 4731.66,362.519 4727.02,365.004C4725.5,365.819 4723.96,366.708 4723.61,366.979C4722.08,368.157 4714,371.049 4712.24,371.049C4711.92,371.049 4711.33,371.227 4710.92,371.444C4710.04,371.912 4706.53,372.969 4704.42,373.399C4703.6,373.566 4702.74,373.851 4702.51,374.031C4702.11,374.336 4701.06,374.611 4698.45,375.095C4696.18,375.518 4692.98,376.308 4689.71,377.256C4687.84,377.801 4685.73,378.347 4685.02,378.468C4683.12,378.797 4671.79,379.197 4671.54,378.944L4671.54,378.944ZM4685.66,372.838C4685.66,372.651 4687.06,372.484 4688.76,372.468C4692.11,372.435 4694.23,372.188 4694.95,371.747C4695.2,371.593 4695.95,371.387 4696.61,371.291C4701.87,370.526 4704.38,369.914 4707.2,368.706C4707.9,368.404 4708.95,367.965 4709.54,367.73C4710.13,367.495 4711.28,367.012 4712.1,366.656C4712.92,366.301 4714.84,365.594 4716.36,365.086C4717.89,364.577 4719.44,363.89 4719.81,363.558C4720.18,363.226 4720.61,363.083 4720.77,363.24C4720.92,363.397 4721.05,363.301 4721.05,363.028C4721.05,362.755 4721.2,362.57 4721.37,362.617C4722.09,362.811 4724.89,361.467 4724.89,360.93C4724.89,360.611 4725.08,360.47 4725.32,360.614C4725.55,360.759 4725.75,360.722 4725.75,360.533C4725.76,360.343 4726.61,359.621 4727.64,358.928C4728.67,358.235 4729.44,357.545 4729.35,357.394C4729.15,357.062 4732.72,354.439 4733.38,354.439C4733.64,354.439 4733.84,354.236 4733.84,353.987C4733.84,353.739 4734.03,353.655 4734.27,353.8C4734.5,353.944 4734.7,353.876 4734.7,353.648C4734.7,353.071 4739.61,348.476 4740.22,348.476C4740.38,348.476 4741.12,347.604 4741.87,346.538C4742.69,345.375 4743.43,344.72 4743.72,344.9C4744.01,345.075 4744.09,345.012 4743.93,344.748C4743.77,344.499 4744.51,343.408 4745.57,342.323C4746.62,341.238 4747.49,340.184 4747.49,339.981C4747.49,339.778 4748.14,338.827 4748.95,337.867C4749.75,336.907 4750.63,335.451 4750.9,334.632C4751.17,333.813 4751.55,333.143 4751.76,333.143C4752.32,333.143 4755.04,327.774 4755.96,324.871C4756.4,323.447 4757.17,320.99 4757.67,319.412C4759.17,314.605 4759.52,311.196 4759.02,306.482C4758.38,300.601 4758.31,300.107 4758.02,299.638C4757.88,299.409 4757.67,298.757 4757.55,298.188C4756.54,293.252 4755.81,290.997 4753.93,286.995C4752.73,284.453 4751.88,282.153 4752.03,281.884C4752.19,281.614 4752.15,281.539 4751.96,281.717C4751.76,281.895 4751.37,281.416 4751.08,280.652C4749.85,277.353 4749.39,276.27 4749.14,276.07C4749,275.953 4748.73,275.378 4748.55,274.792C4748.37,274.206 4747.89,273.44 4747.49,273.088C4746.68,272.377 4744.5,268.465 4744.5,267.719C4744.5,267.456 4743.93,266.592 4743.23,265.799C4742.53,265.006 4741.84,264.022 4741.71,263.612C4741.57,263.202 4741.3,262.866 4741.1,262.866C4740.9,262.866 4740.61,262.318 4740.47,261.648C4740.28,260.831 4739.29,259.705 4737.45,258.228C4735.93,257.017 4734.7,255.745 4734.7,255.4C4734.7,255.056 4734.43,254.774 4734.11,254.774C4733.79,254.774 4733.28,254.477 4732.97,254.114C4732.67,253.751 4731.55,253.057 4730.49,252.572C4728.77,251.79 4726.21,250.032 4724.55,248.491C4724.23,248.199 4723.76,247.959 4723.5,247.959C4723.23,247.959 4722.49,247.459 4721.86,246.847C4719.99,245.063 4715.21,243.745 4707.2,242.803C4703.21,242.335 4699.24,241.795 4698.39,241.602C4696.57,241.194 4693.03,241.752 4690.57,242.834C4689.63,243.247 4688.09,243.843 4687.16,244.157C4686.22,244.472 4685.26,244.86 4685.03,245.02C4684.79,245.18 4682.68,245.828 4680.35,246.461C4678.01,247.094 4675.57,247.982 4674.94,248.434C4674.3,248.885 4673.04,249.518 4672.12,249.839C4671.21,250.16 4669.52,250.93 4668.37,251.549C4663.26,254.284 4660.71,255.745 4660.51,256.04C4660.39,256.215 4659.66,256.682 4658.89,257.078C4656.3,258.403 4649.65,263.051 4648.78,264.136C4647.66,265.544 4644.09,268.845 4642.66,269.785C4642.04,270.193 4641.71,270.528 4641.93,270.53C4642.15,270.532 4641.87,271.012 4641.32,271.598C4640.77,272.183 4640.01,272.662 4639.64,272.662C4638.81,272.662 4635.1,276.45 4633.58,278.838C4631.43,282.218 4630.75,283.658 4630.46,285.492C4630.3,286.517 4629.89,288.336 4629.55,289.534C4628.73,292.424 4628.34,294.278 4627.26,300.347C4626.54,304.396 4627.24,321.217 4628.12,321.217C4628.46,321.217 4629.03,322.935 4629.22,324.485C4629.32,325.303 4629.69,326.107 4631.04,328.458C4631.25,328.809 4631.85,330.342 4632.38,331.865C4634.75,338.657 4635.15,339.757 4635.39,339.957C4636.1,340.571 4637.97,344.635 4637.72,345.032C4637.56,345.286 4637.64,345.494 4637.89,345.494C4638.14,345.494 4638.34,345.734 4638.35,346.027C4638.36,346.319 4638.84,347.517 4639.41,348.689C4639.99,349.86 4640.46,351.028 4640.47,351.285C4640.48,351.967 4641.76,354.439 4642.11,354.439C4642.27,354.439 4642.78,355.124 4643.23,355.962C4643.68,356.8 4644.57,357.751 4645.19,358.076C4645.82,358.401 4646.45,358.961 4646.59,359.321C4646.73,359.681 4647.07,359.975 4647.35,359.975C4647.84,359.975 4648.33,360.363 4650.41,362.377C4651.79,363.711 4660.6,368.142 4661.44,367.923C4661.84,367.82 4662.26,367.99 4662.38,368.3C4662.49,368.61 4663.01,369.087 4663.52,369.36C4664.28,369.764 4664.39,369.75 4664.11,369.282C4663.91,368.939 4664.1,368.99 4664.59,369.408C4665.04,369.793 4666.56,370.341 4667.97,370.625C4669.38,370.909 4670.73,371.301 4670.97,371.495C4671.21,371.689 4672.93,371.981 4674.8,372.143C4676.67,372.305 4678.49,372.599 4678.84,372.795C4679.66,373.253 4685.66,373.291 4685.66,372.838L4685.66,372.838ZM4684.55,242.42C4684.9,242.059 4684.7,242.013 4683.75,242.236C4681.74,242.708 4680.94,243.329 4682.63,243.1C4683.42,242.992 4684.29,242.686 4684.55,242.42Z" style="fill:rgb(176,242,182);fill-rule:nonzero;"/>
        </g>
    </g>
</svg>
