<?xml version="1.0" encoding="UTF-8" standalone="no"?>
<!DOCTYPE svg PUBLIC "-//W3C//DTD SVG 1.1//EN" "http://www.w3.org/Graphics/SVG/1.1/DTD/svg11.dtd">
<svg width="100%" height="100%" viewBox="0 0 1080 1080" version="1.1" xmlns="http://www.w3.org/2000/svg" xmlns:xlink="http://www.w3.org/1999/xlink" xml:space="preserve" xmlns:serif="http://www.serif.com/" style="fill-rule:evenodd;clip-rule:evenodd;stroke-linecap:round;stroke-linejoin:round;stroke-miterlimit:1.5;">
    <path d="M73.358,615.396C73.358,615.396 31.245,100.528 540,134.491C576.856,112.991 1077.15,143.283 983.547,600.453C983.547,600.453 957.736,961.811 518.943,957.736C527.976,946.445 166.002,976.762 73.358,615.396Z" style="fill:white;"/>
    <g transform="matrix(0.869867,0,0,0.869867,1312.15,-384.406)">
        <g id="path1" transform="matrix(-6.51938,-3.76396,3.69757,-6.40437,28566.2,20690.3)">
            <path d="M4671.54,378.944C4671.42,378.824 4669.99,378.458 4668.37,378.13C4666.74,377.803 4663.97,377.148 4662.21,376.675C4660.46,376.202 4658.73,375.749 4658.39,375.668C4657.58,375.481 4656.67,374.643 4656.67,374.091C4656.67,373.857 4655.65,373.369 4654.4,373.006C4652.35,372.411 4650.7,371.276 4650.7,370.462C4650.7,369.906 4647.95,367.334 4647.06,367.058C4645.73,366.646 4640.88,361.743 4640.2,360.127C4639.88,359.341 4639.42,358.698 4639.19,358.698C4638.95,358.698 4638.76,358.515 4638.76,358.291C4638.76,358.068 4638.33,357.411 4637.81,356.833C4635.89,354.736 4634.93,353.22 4634.93,352.308C4634.93,351.746 4634.6,351.292 4634.1,351.162C4633.65,351.043 4633.07,350.438 4632.81,349.817C4632.56,349.196 4632.08,348.209 4631.75,347.624C4631.14,346.534 4627.99,339.875 4627.14,337.875C4626.56,336.49 4626.4,335.549 4626.36,333.249C4626.34,332.253 4626.18,331.439 4626,331.439C4625.83,331.439 4625.45,330.388 4625.16,329.104C4624.87,327.819 4624.46,326.658 4624.24,326.523C4624.02,326.388 4623.84,325.694 4623.84,324.98C4623.84,324.266 4623.57,322.601 4623.23,321.278C4622.21,317.256 4622.22,299.552 4623.25,294.669C4623.35,294.161 4623.52,293.02 4623.62,292.134C4623.73,291.248 4624.11,290.226 4624.47,289.864C4624.83,289.501 4625.03,289.042 4624.9,288.842C4624.32,287.892 4628.07,278.348 4629.21,277.913C4629.6,277.764 4629.74,277.369 4629.58,276.871C4629.44,276.41 4629.53,276.07 4629.81,276.07C4630.07,276.07 4630.17,275.878 4630.02,275.644C4629.88,275.409 4629.96,275.218 4630.21,275.218C4630.46,275.218 4630.64,275.074 4630.61,274.898C4630.43,273.71 4630.84,273.024 4632.07,272.513C4633.13,272.068 4633.61,271.498 4634.06,270.144C4634.39,269.164 4634.87,268.227 4635.13,268.063C4635.39,267.899 4636.13,266.867 4636.76,265.769C4637.4,264.672 4638.31,263.649 4638.8,263.495C4639.33,263.327 4639.59,262.976 4639.45,262.615C4639.31,262.263 4639.48,262.014 4639.86,262.014C4640.21,262.014 4640.61,261.727 4640.74,261.375C4640.88,261.024 4641.25,260.737 4641.57,260.737C4641.88,260.737 4642.34,260.374 4642.58,259.931C4642.81,259.488 4643.84,258.636 4644.86,258.038C4645.89,257.44 4647.18,256.284 4647.74,255.469C4648.3,254.653 4648.92,254.086 4649.12,254.209C4649.32,254.331 4649.8,254.148 4650.2,253.801C4650.59,253.454 4651.35,253.039 4651.88,252.879C4652.4,252.718 4652.83,252.413 4652.83,252.201C4652.83,251.989 4653.78,251.41 4654.94,250.913C4656.09,250.416 4657.14,249.74 4657.27,249.41C4657.39,249.081 4657.78,248.811 4658.13,248.811C4658.48,248.811 4658.91,248.556 4659.1,248.245C4659.29,247.934 4660.89,246.9 4662.66,245.949C4664.43,244.998 4666.61,243.72 4667.51,243.109C4668.41,242.498 4669.94,241.787 4670.91,241.529C4671.87,241.272 4672.85,240.911 4673.09,240.728C4673.64,240.296 4678.38,238.84 4679.48,238.762C4680.66,238.679 4682.25,238.12 4682.25,237.791C4682.25,237.641 4683.1,237.585 4684.13,237.667C4685.16,237.749 4686.41,237.594 4686.92,237.324C4687.43,237.053 4689.17,236.721 4690.79,236.585C4692.7,236.425 4694.01,236.083 4694.52,235.612C4695.02,235.145 4695.59,234.992 4696.13,235.184C4696.59,235.348 4697.44,235.397 4698.03,235.292C4698.61,235.188 4699.96,235.107 4701.01,235.113C4702.07,235.119 4704.15,235.129 4705.63,235.136C4707.28,235.144 4709.35,235.51 4710.96,236.076C4713.81,237.081 4717.51,238.891 4717.72,239.386C4717.88,239.753 4725.2,241.69 4726.28,241.65C4726.7,241.634 4726.93,241.802 4726.79,242.022C4726.66,242.242 4726.94,242.422 4727.42,242.422C4727.9,242.422 4728.3,242.595 4728.3,242.806C4728.3,243.328 4730.74,244.144 4731.47,243.866C4731.79,243.743 4732.41,244.014 4732.84,244.468C4733.27,244.922 4734.4,245.531 4735.34,245.822C4737.69,246.552 4739.81,247.596 4739.81,248.026C4739.81,248.223 4740.02,248.385 4740.27,248.385C4741.38,248.385 4743.73,250.822 4745.63,253.941C4746.77,255.805 4747.84,257.329 4748.02,257.329C4748.19,257.329 4748.34,257.556 4748.34,257.834C4748.34,258.855 4750.14,262.014 4750.72,262.014C4751.07,262.014 4751.32,262.435 4751.32,262.994C4751.32,263.533 4751.48,264.156 4751.68,264.378C4751.88,264.601 4752.37,265.741 4752.78,266.912C4753.2,268.084 4754.38,270.731 4755.41,272.794C4756.45,274.858 4757.29,276.745 4757.29,276.986C4757.29,277.228 4757.68,277.913 4758.15,278.509C4758.61,279.104 4759,280.034 4759,280.574C4759,281.114 4759.19,281.675 4759.43,281.819C4759.66,281.964 4759.85,282.497 4759.85,283.004C4759.85,283.511 4760.23,285.176 4760.69,286.706C4762.12,291.446 4762.88,294.528 4763.06,296.301C4763.16,297.238 4763.43,299.316 4763.68,300.918C4763.92,302.521 4764.13,304.342 4764.15,304.965C4764.16,305.587 4764.19,307.247 4764.22,308.652C4764.29,311.907 4763.89,315.553 4763.3,317.092C4763.04,317.751 4762.84,318.865 4762.84,319.566C4762.84,320.298 4762.65,320.73 4762.41,320.581C4762.17,320.431 4762.1,320.604 4762.25,320.989C4762.48,321.593 4762.16,322.807 4761.11,325.263C4759.96,327.934 4759.42,329.494 4759.42,330.126C4759.42,330.519 4758.47,332.299 4757.29,334.083C4756.12,335.867 4755.16,337.503 4755.16,337.718C4755.16,337.934 4754.7,338.355 4754.14,338.654C4753.58,338.954 4752.9,339.705 4752.62,340.323C4752.34,340.942 4751.8,341.927 4751.42,342.513C4751.03,343.098 4750.68,343.814 4750.63,344.102C4750.51,344.877 4748.65,347.118 4747.91,347.387C4747.19,347.648 4744.93,349.523 4744.93,349.858C4744.93,349.978 4743.06,352.001 4740.77,354.354C4736.4,358.847 4731.66,362.519 4727.02,365.004C4725.5,365.819 4723.96,366.708 4723.61,366.979C4722.08,368.157 4714,371.049 4712.24,371.049C4711.92,371.049 4711.33,371.227 4710.92,371.444C4710.04,371.912 4706.53,372.969 4704.42,373.399C4703.6,373.566 4702.74,373.851 4702.51,374.031C4702.11,374.336 4701.06,374.611 4698.45,375.095C4696.18,375.518 4692.98,376.308 4689.71,377.256C4687.84,377.801 4685.73,378.347 4685.02,378.468C4683.12,378.797 4671.79,379.197 4671.54,378.944L4671.54,378.944ZM4685.66,372.838C4685.66,372.651 4687.06,372.484 4688.76,372.468C4692.11,372.435 4694.23,372.188 4694.95,371.747C4695.2,371.593 4695.95,371.387 4696.61,371.291C4701.87,370.526 4704.38,369.914 4707.2,368.706C4707.9,368.404 4708.95,367.965 4709.54,367.73C4710.13,367.495 4711.28,367.012 4712.1,366.656C4712.92,366.301 4714.84,365.594 4716.36,365.086C4717.89,364.577 4719.44,363.89 4719.81,363.558C4720.18,363.226 4720.61,363.083 4720.77,363.24C4720.92,363.397 4721.05,363.301 4721.05,363.028C4721.05,362.755 4721.2,362.57 4721.37,362.617C4722.09,362.811 4724.89,361.467 4724.89,360.93C4724.89,360.611 4725.08,360.47 4725.32,360.614C4725.55,360.759 4725.75,360.722 4725.75,360.533C4725.76,360.343 4726.61,359.621 4727.64,358.928C4728.67,358.235 4729.44,357.545 4729.35,357.394C4729.15,357.062 4732.72,354.439 4733.38,354.439C4733.64,354.439 4733.84,354.236 4733.84,353.987C4733.84,353.739 4734.03,353.655 4734.27,353.8C4734.5,353.944 4734.7,353.876 4734.7,353.648C4734.7,353.071 4739.61,348.476 4740.22,348.476C4740.38,348.476 4741.12,347.604 4741.87,346.538C4742.69,345.375 4743.43,344.72 4743.72,344.9C4744.01,345.075 4744.09,345.012 4743.93,344.748C4743.77,344.499 4744.51,343.408 4745.57,342.323C4746.62,341.238 4747.49,340.184 4747.49,339.981C4747.49,339.778 4748.14,338.827 4748.95,337.867C4749.75,336.907 4750.63,335.451 4750.9,334.632C4751.17,333.813 4751.55,333.143 4751.76,333.143C4752.32,333.143 4755.04,327.774 4755.96,324.871C4756.4,323.447 4757.17,320.99 4757.67,319.412C4759.17,314.605 4759.52,311.196 4759.02,306.482C4758.38,300.601 4758.31,300.107 4758.02,299.638C4757.88,299.409 4757.67,298.757 4757.55,298.188C4756.54,293.252 4755.81,290.997 4753.93,286.995C4752.73,284.453 4751.88,282.153 4752.03,281.884C4752.19,281.614 4752.15,281.539 4751.96,281.717C4751.76,281.895 4751.37,281.416 4751.08,280.652C4749.85,277.353 4749.39,276.27 4749.14,276.07C4749,275.953 4748.73,275.378 4748.55,274.792C4748.37,274.206 4747.89,273.44 4747.49,273.088C4746.68,272.377 4744.5,268.465 4744.5,267.719C4744.5,267.456 4743.93,266.592 4743.23,265.799C4742.53,265.006 4741.84,264.022 4741.71,263.612C4741.57,263.202 4741.3,262.866 4741.1,262.866C4740.9,262.866 4740.61,262.318 4740.47,261.648C4740.28,260.831 4739.29,259.705 4737.45,258.228C4735.93,257.017 4734.7,255.745 4734.7,255.4C4734.7,255.056 4734.43,254.774 4734.11,254.774C4733.79,254.774 4733.28,254.477 4732.97,254.114C4732.67,253.751 4731.55,253.057 4730.49,252.572C4728.77,251.79 4726.21,250.032 4724.55,248.491C4724.23,248.199 4723.76,247.959 4723.5,247.959C4723.23,247.959 4722.49,247.459 4721.86,246.847C4719.99,245.063 4715.21,243.745 4707.2,242.803C4703.21,242.335 4699.24,241.795 4698.39,241.602C4696.57,241.194 4693.03,241.752 4690.57,242.834C4689.63,243.247 4688.09,243.843 4687.16,244.157C4686.22,244.472 4685.26,244.86 4685.03,245.02C4684.79,245.18 4682.68,245.828 4680.35,246.461C4678.01,247.094 4675.57,247.982 4674.94,248.434C4674.3,248.885 4673.04,249.518 4672.12,249.839C4671.21,250.16 4669.52,250.93 4668.37,251.549C4663.26,254.284 4660.71,255.745 4660.51,256.04C4660.39,256.215 4659.66,256.682 4658.89,257.078C4656.3,258.403 4649.65,263.051 4648.78,264.136C4647.66,265.544 4644.09,268.845 4642.66,269.785C4642.04,270.193 4641.71,270.528 4641.93,270.53C4642.15,270.532 4641.87,271.012 4641.32,271.598C4640.77,272.183 4640.01,272.662 4639.64,272.662C4638.81,272.662 4635.1,276.45 4633.58,278.838C4631.43,282.218 4630.75,283.658 4630.46,285.492C4630.3,286.517 4629.89,288.336 4629.55,289.534C4628.73,292.424 4628.34,294.278 4627.26,300.347C4626.54,304.396 4627.24,321.217 4628.12,321.217C4628.46,321.217 4629.03,322.935 4629.22,324.485C4629.32,325.303 4629.69,326.107 4631.04,328.458C4631.25,328.809 4631.85,330.342 4632.38,331.865C4634.75,338.657 4635.15,339.757 4635.39,339.957C4636.1,340.571 4637.97,344.635 4637.72,345.032C4637.56,345.286 4637.64,345.494 4637.89,345.494C4638.14,345.494 4638.34,345.734 4638.35,346.027C4638.36,346.319 4638.84,347.517 4639.41,348.689C4639.99,349.86 4640.46,351.028 4640.47,351.285C4640.48,351.967 4641.76,354.439 4642.11,354.439C4642.27,354.439 4642.78,355.124 4643.23,355.962C4643.68,356.8 4644.57,357.751 4645.19,358.076C4645.82,358.401 4646.45,358.961 4646.59,359.321C4646.73,359.681 4647.07,359.975 4647.35,359.975C4647.84,359.975 4648.33,360.363 4650.41,362.377C4651.79,363.711 4660.6,368.142 4661.44,367.923C4661.84,367.82 4662.26,367.99 4662.38,368.3C4662.49,368.61 4663.01,369.087 4663.52,369.36C4664.28,369.764 4664.39,369.75 4664.11,369.282C4663.91,368.939 4664.1,368.99 4664.59,369.408C4665.04,369.793 4666.56,370.341 4667.97,370.625C4669.38,370.909 4670.73,371.301 4670.97,371.495C4671.21,371.689 4672.93,371.981 4674.8,372.143C4676.67,372.305 4678.49,372.599 4678.84,372.795C4679.66,373.253 4685.66,373.291 4685.66,372.838L4685.66,372.838ZM4684.55,242.42C4684.9,242.059 4684.7,242.013 4683.75,242.236C4681.74,242.708 4680.94,243.329 4682.63,243.1C4683.42,242.992 4684.29,242.686 4684.55,242.42Z" style="fill:rgb(176,242,182);fill-rule:nonzero;"/>
        </g>
        <g id="path11" serif:id="path1" transform="matrix(5.4483,0,0,5.4483,-26416.9,-2930.38)">
            <path d="M4737.44,784.77C4737.11,784.245 4736.75,784.138 4736.16,784.391C4734.87,784.942 4733.84,785.071 4733.84,784.681C4733.84,784.485 4732.59,784.354 4731.05,784.39C4729.51,784.426 4728.17,784.325 4728.07,784.165C4727.97,784.005 4727.33,783.939 4726.65,784.019C4725.46,784.156 4724.61,783.639 4724.47,782.699C4724.44,782.465 4724.04,782.319 4723.58,782.375C4723.01,782.445 4722.76,782.218 4722.76,781.638C4722.76,781.107 4722.38,780.705 4721.73,780.542C4721.17,780.4 4720.27,779.822 4719.74,779.256C4719.21,778.69 4718.58,778.227 4718.34,778.227C4717.63,778.227 4714.64,774.697 4714.37,773.542C4714.23,772.957 4713.77,772.094 4713.35,771.626C4712.45,770.638 4710.84,767.236 4710.83,766.302C4710.82,765.95 4710.57,765.184 4710.27,764.598C4709.51,763.111 4709.33,759.913 4710.01,759.913C4710.3,759.913 4710.41,759.786 4710.25,759.631C4710.1,759.477 4709.3,759.71 4708.48,760.15C4707.14,760.874 4706.95,760.886 4706.46,760.278C4705.69,759.321 4704.26,758.863 4704.57,759.673C4704.71,760.052 4704.48,760.398 4703.98,760.559C4703.52,760.703 4703.15,761.001 4703.15,761.219C4703.15,761.438 4702.86,761.616 4702.51,761.616C4702.15,761.616 4701.87,761.897 4701.87,762.24C4701.87,763.013 4700.67,763.671 4697.53,764.619L4695.11,765.352L4692.91,764.266C4691.71,763.669 4690.2,762.508 4689.58,761.686C4688.59,760.396 4688.43,759.753 4688.37,756.965C4688.34,755.189 4688.25,753.545 4688.18,753.311C4688.06,752.898 4688.14,752.558 4689.16,749.16C4689.56,747.819 4689.52,747.44 4688.93,746.784C4688.54,746.355 4688.22,745.814 4688.22,745.583C4688.22,745.352 4687.51,744.824 4686.64,744.408C4685.77,743.993 4684.8,743.287 4684.48,742.839C4684.17,742.391 4683.67,742.024 4683.37,742.024C4683.07,742.024 4682.58,741.572 4682.28,741.019C4681.99,740.466 4680.9,739.48 4679.87,738.828C4678.84,738.175 4677.99,737.493 4677.99,737.31C4677.99,737.128 4677.36,736.771 4676.58,736.516C4675.81,736.261 4674.25,735.11 4673.11,733.958C4671.98,732.807 4670.64,731.755 4670.15,731.62C4669.65,731.486 4668.6,730.513 4667.81,729.459C4667.02,728.405 4666.2,727.543 4665.99,727.543C4665.19,727.543 4655.03,717.014 4653.87,714.978C4653.2,713.807 4652.49,712.781 4652.29,712.698C4652.09,712.616 4651.43,712.089 4650.83,711.527C4650.22,710.966 4649.57,710.506 4649.37,710.506C4649.17,710.506 4648.62,709.73 4648.13,708.782C4647.04,706.641 4645.55,705.92 4644.98,707.252C4643.56,710.57 4642.24,714.659 4642,716.525C4641.75,718.455 4641.2,720.094 4640.57,720.82C4640.21,721.242 4640.03,722.011 4640.15,722.641C4640.28,723.342 4640.13,723.859 4639.71,724.09C4638.9,724.543 4639.47,725.561 4640.35,725.225C4641.18,724.907 4644.15,725.707 4644.83,726.43C4645.11,726.737 4645.69,726.899 4646.11,726.79C4646.66,726.646 4646.86,726.839 4646.86,727.493C4646.86,728.585 4647.23,728.643 4647.94,727.666C4648.39,727.058 4648.59,727.029 4649.15,727.489C4649.51,727.793 4650.01,727.919 4650.26,727.768C4650.5,727.616 4650.7,727.696 4650.7,727.944C4650.7,728.192 4650.97,728.395 4651.3,728.395C4652.06,728.395 4656.49,732.819 4657.8,734.89C4658.36,735.769 4658.97,736.487 4659.17,736.487C4659.76,736.487 4661.79,740.574 4661.79,741.762C4661.79,742.681 4661.58,742.885 4660.61,742.926L4659.44,742.977L4660.72,743.248C4661.84,743.485 4662.02,743.723 4662.14,745.171C4662.25,746.527 4662.15,746.777 4661.6,746.566C4661.24,746.426 4660.94,746.48 4660.94,746.687C4660.94,746.895 4661.11,747.128 4661.31,747.206C4661.52,747.284 4661.81,748.307 4661.96,749.478C4662.2,751.32 4662.09,751.837 4661.13,753.311C4660.52,754.248 4660.12,754.689 4660.24,754.291C4660.4,753.781 4660.28,753.639 4659.84,753.808C4659.33,754.003 4659.31,754.172 4659.74,754.686C4660.53,755.637 4660.63,757.365 4659.94,758.152C4659.61,758.535 4659.1,759.602 4658.8,760.523C4658.5,761.445 4657.47,763.197 4656.51,764.416C4653.53,768.177 4653.26,768.583 4653.26,769.278C4653.26,770.171 4650.99,771.483 4649.99,771.161C4649.37,770.959 4649.34,770.997 4649.82,771.34C4650.33,771.699 4650.34,771.889 4649.88,772.445C4649.57,772.814 4649.14,773.116 4648.93,773.116C4648.72,773.116 4647.87,773.787 4647.05,774.607C4646.23,775.427 4645.2,776.098 4644.77,776.098C4644.33,776.098 4643.85,776.405 4643.71,776.781C4643.51,777.292 4643.02,777.423 4641.74,777.302C4640.81,777.213 4640.04,777.289 4640.04,777.471C4640.04,777.653 4639.69,777.801 4639.25,777.801C4638.81,777.801 4637.99,778.269 4637.41,778.84C4636.69,779.567 4635.68,779.968 4634.05,780.175C4632.77,780.337 4631.49,780.658 4631.2,780.887C4630.91,781.116 4630.39,781.195 4630.04,781.061C4629.69,780.928 4629.15,781.079 4628.83,781.397C4628.18,782.045 4622.56,781.817 4622.56,781.142C4622.56,780.936 4622.1,780.883 4621.53,781.026C4620.75,781.221 4620.26,781.017 4619.56,780.215C4619.05,779.625 4618.37,779.242 4618.06,779.362C4617.66,779.515 4617.51,779.234 4617.57,778.417C4617.65,777.357 4617.46,777.198 4615.42,776.621C4613.09,775.964 4612.9,775.722 4613.61,774.395C4613.95,773.764 4613.86,773.546 4613.22,773.341C4612.77,773.199 4611.87,772.372 4611.22,771.502C4610.56,770.633 4609.88,769.819 4609.7,769.694C4609.01,769.212 4607.64,765.46 4607.65,764.104C4607.67,762.051 4607.47,760.762 4606.85,758.975C4606.46,757.833 4606.43,757.166 4606.76,756.554C4607.01,756.09 4607.21,755.229 4607.21,754.642C4607.21,754.055 4607.42,753.449 4607.66,753.296C4607.91,753.142 4608.08,752.604 4608.03,752.099C4607.98,751.594 4608.08,750.852 4608.26,750.448C4608.43,750.045 4608.63,748.799 4608.69,747.68C4608.86,744.801 4609.76,742.639 4611.14,741.824C4611.8,741.439 4612.33,740.925 4612.33,740.682C4612.33,739.184 4619,731.071 4620.48,730.773C4621.85,730.496 4622.85,729.88 4624.11,728.54C4625.07,727.517 4625.82,727.117 4626.78,727.117C4627.51,727.117 4628.11,726.967 4628.11,726.785C4628.11,726.207 4630.78,725.393 4633.56,725.122C4635.03,724.979 4636.32,724.716 4636.43,724.537C4636.55,724.358 4636.73,723.296 4636.84,722.177C4637.08,719.862 4637.64,719.01 4638.42,719.791C4638.7,720.072 4639.13,720.302 4639.36,720.302C4639.6,720.302 4639.56,720.075 4639.28,719.791C4638.44,718.958 4638.66,717.411 4639.66,717.094C4640.29,716.894 4640.42,716.677 4640.1,716.359C4639.5,715.76 4639.98,712.135 4640.73,711.527C4641.05,711.268 4641.39,710.501 4641.48,709.823C4641.56,709.145 4641.78,708.254 4641.95,707.844C4642.12,707.434 4642.16,706.834 4642.04,706.509C4641.79,705.86 4642.91,703.995 4643.38,704.284C4643.54,704.383 4643.6,703.428 4643.52,702.161C4643.39,700.062 4643.45,699.858 4644.27,699.858C4644.76,699.858 4645.16,699.594 4645.16,699.272C4645.16,698.949 4645.44,698.448 4645.79,698.159C4646.14,697.869 4646.32,697.462 4646.19,697.255C4646.07,697.047 4646.26,696.877 4646.63,696.877C4646.99,696.877 4647.29,696.685 4647.29,696.451C4647.29,696.217 4647.08,696.025 4646.82,696.025C4646.52,696.025 4646.45,695.668 4646.64,695.067C4646.81,694.54 4646.96,693.69 4646.99,693.178C4647.01,692.666 4647.17,692.329 4647.33,692.43C4647.49,692.531 4647.74,692.317 4647.88,691.954C4648.02,691.592 4647.96,691.4 4647.76,691.528C4647.55,691.656 4647.27,691.465 4647.13,691.103C4646.99,690.74 4647.02,690.527 4647.19,690.629C4647.36,690.731 4647.94,690.651 4648.46,690.452C4649.12,690.202 4649.42,689.74 4649.42,688.966C4649.42,688.116 4649.59,687.905 4650.1,688.1C4650.47,688.242 4650.95,688.359 4651.16,688.359C4651.85,688.359 4651.58,689.144 4650.81,689.39C4650.31,689.547 4650.03,690.128 4649.97,691.122C4649.8,693.74 4649.63,694.949 4649.37,695.386C4649.23,695.621 4648.86,696.723 4648.54,697.835C4647.99,699.752 4647.59,700.258 4647.18,699.539C4647.09,699.363 4647.1,699.507 4647.2,699.858C4647.32,700.21 4647.38,700.916 4647.36,701.427C4647.32,702.084 4647.58,702.396 4648.26,702.492C4648.87,702.578 4649.26,702.972 4649.35,703.585C4649.43,704.195 4649.78,704.543 4650.29,704.543C4650.84,704.543 4651.02,704.334 4650.86,703.905C4650.72,703.553 4650.82,703.266 4651.08,703.266C4651.34,703.266 4651.56,703.649 4651.56,704.118C4651.56,704.586 4651.77,704.969 4652.03,704.969C4652.29,704.969 4652.39,704.692 4652.26,704.352C4652.1,703.943 4652.23,703.814 4652.63,703.969C4652.97,704.097 4654.08,703.795 4655.11,703.298C4656.91,702.431 4661.61,702.09 4661.13,702.862C4661.03,703.035 4661.23,703.286 4661.58,703.421C4661.93,703.555 4662.21,703.479 4662.21,703.252C4662.21,703.025 4662.52,702.84 4662.9,702.84C4663.38,702.84 4663.52,702.58 4663.37,701.988C4663.18,701.273 4663.36,701.136 4664.45,701.136L4665.76,701.136L4664.79,701.975L4663.82,702.813L4665.14,702.72C4666.17,702.648 4666.41,702.466 4666.24,701.906C4666.07,701.385 4666.24,701.203 4666.85,701.249C4667.32,701.284 4667.6,701.465 4667.49,701.65C4667.37,701.836 4667.5,701.988 4667.76,701.988C4668.02,701.988 4668.1,702.201 4667.94,702.461C4667.52,703.142 4668.64,703.703 4669.51,703.242C4670.03,702.963 4670.52,703.089 4671.23,703.684L4672.23,704.515L4671.06,704.529C4670.42,704.537 4669.89,704.352 4669.89,704.118C4669.89,703.883 4669.7,703.692 4669.46,703.692C4669.23,703.692 4669.04,703.979 4669.04,704.331C4669.04,704.682 4668.76,704.969 4668.42,704.969C4667.49,704.969 4667.22,704.209 4668.07,703.986C4668.78,703.801 4668.78,703.788 4668.08,703.741C4667.67,703.714 4667.32,703.452 4667.31,703.159C4667.29,702.866 4667.11,703.04 4666.91,703.545C4666.47,704.626 4664.34,705.222 4663.16,704.592C4662.67,704.327 4662.2,704.311 4661.96,704.549C4661.38,705.131 4659.66,704.549 4659.66,703.77C4659.66,703.245 4659.55,703.209 4659.15,703.606C4658.87,703.888 4658.18,704.118 4657.63,704.118C4657.08,704.118 4656.74,704.3 4656.88,704.524C4657.02,704.747 4656.31,705.133 4655.3,705.383C4654.3,705.632 4652.92,705.978 4652.24,706.153L4650.99,706.47L4654.02,709.498C4655.68,711.163 4657.34,713.221 4657.69,714.071C4658.05,714.922 4658.59,715.617 4658.9,715.617C4659.42,715.617 4660.94,717.049 4660.94,717.539C4660.94,718.145 4662.72,719.396 4663.28,719.182C4663.63,719.046 4663.92,719.1 4663.92,719.303C4663.92,719.956 4666.09,722.033 4666.51,721.777C4666.73,721.641 4666.93,721.877 4666.96,722.3C4666.98,722.724 4667.03,723.358 4667.06,723.71C4667.1,724.068 4667.45,724.294 4667.87,724.223C4668.28,724.154 4668.61,724.363 4668.61,724.688C4668.61,725.012 4669.1,725.5 4669.7,725.773C4670.3,726.046 4670.68,726.46 4670.53,726.693C4670.39,726.926 4670.46,727.117 4670.69,727.117C4670.93,727.117 4671.75,727.692 4672.52,728.395C4673.29,729.098 4674.16,729.673 4674.47,729.673C4674.76,729.673 4675.01,729.947 4675.01,730.283C4675.01,730.618 4675.39,731.015 4675.86,731.163C4676.33,731.312 4676.72,731.592 4676.72,731.785C4676.72,731.978 4677.15,732.247 4677.67,732.382C4678.57,732.611 4681.17,734.667 4684.08,737.446C4684.76,738.09 4685.53,738.62 4685.81,738.624C4686.08,738.628 4686.78,739.126 4687.35,739.729C4687.93,740.333 4689.41,741.475 4690.65,742.266L4692.9,743.706L4694.81,742.885C4696.29,742.251 4697.37,742.112 4699.57,742.27C4702.38,742.473 4702.41,742.465 4703.95,740.883C4705.3,739.496 4705.5,739.015 4705.53,737.144C4705.56,734.854 4706.51,731.946 4707.47,731.194C4707.79,730.943 4708.12,730.258 4708.2,729.673C4708.54,727.091 4710.03,722.637 4710.83,721.788C4711.31,721.278 4711.59,720.574 4711.46,720.224C4711.32,719.874 4711.51,719.343 4711.87,719.045C4712.23,718.746 4712.42,718.334 4712.29,718.129C4711.9,717.498 4713.71,713.914 4714.42,713.914C4714.79,713.914 4715.09,713.618 4715.09,713.258C4715.09,712.897 4715.49,712.053 4715.99,711.382C4716.49,710.711 4717.04,709.425 4717.22,708.524C4717.39,707.623 4717.63,706.599 4717.74,706.247C4717.84,705.896 4717.85,705.75 4717.76,705.924C4717.66,706.098 4717.23,706.057 4716.82,705.833C4716.4,705.609 4715.96,705.518 4715.85,705.631C4715.73,705.744 4713.87,705.928 4711.69,706.04C4708.44,706.208 4707.79,706.139 4707.98,705.65C4708.13,705.248 4707.81,704.999 4706.98,704.877C4706.3,704.778 4705.85,704.861 4705.98,705.061C4706.1,705.261 4705.66,705.322 4705,705.198C4704.33,705.074 4703.24,705.197 4702.56,705.472C4701.51,705.898 4701.25,705.861 4700.78,705.224C4700.33,704.604 4700.07,704.562 4699.3,704.976C4698.78,705.251 4697.91,705.389 4697.35,705.282C4696.7,705.159 4696.33,705.288 4696.33,705.63C4696.33,706.191 4696.11,706.189 4694.02,705.612C4692.86,705.291 4692.83,705.233 4693.57,704.693C4694.29,704.164 4694.25,704.118 4693.02,704.118C4692.29,704.118 4691.57,704.309 4691.42,704.543C4691.28,704.778 4691.38,704.969 4691.64,704.969C4691.9,704.969 4692.01,705.146 4691.87,705.362C4691.59,705.812 4684.92,705.681 4682.68,705.182C4681.86,704.999 4680.97,704.673 4680.69,704.458C4680.39,704.219 4679.55,704.24 4678.53,704.513C4676.4,705.088 4672.96,704.939 4672.7,704.26C4672.57,703.94 4672.73,703.827 4673.11,703.972C4673.45,704.102 4673.73,703.997 4673.73,703.737C4673.73,703.478 4673.4,703.237 4672.98,703.201C4671.6,703.08 4671.39,703.022 4670.53,702.518C4670.06,702.241 4669.91,702.008 4670.19,702.001C4670.47,701.994 4670.78,702.132 4670.89,702.307C4671.26,702.896 4678.47,702.602 4678.85,701.983C4679.14,701.517 4679.38,701.531 4680.2,702.058C4681.82,703.103 4682.71,703.168 4687.39,702.584C4693.86,701.779 4694.13,701.797 4694.45,703.053C4694.59,703.638 4694.9,704.118 4695.12,704.118C4695.35,704.118 4695.41,704.549 4695.27,705.076C4695.02,705.976 4695.04,705.987 4695.63,705.263C4695.97,704.838 4696.2,704.025 4696.13,703.456C4696.07,702.886 4696.23,702.245 4696.49,702.03C4696.99,701.617 4701.44,702.308 4701.44,702.799C4701.44,702.949 4703.58,702.908 4706.19,702.707C4711,702.337 4711.28,702.395 4711.8,703.874C4711.88,704.091 4712.18,704.12 4712.47,703.939C4712.88,703.687 4712.84,703.491 4712.31,703.103C4711.69,702.649 4711.71,702.596 4712.47,702.596C4712.94,702.596 4713.24,702.727 4713.14,702.887C4713.04,703.046 4713.75,703.252 4714.71,703.343L4716.45,703.509L4715.24,702.538C4713.81,701.393 4714.53,701.234 4716.29,702.307C4716.99,702.737 4717.43,703.323 4717.33,703.692C4717.18,704.258 4717.2,704.258 4717.6,703.694C4717.98,703.143 4718.13,703.172 4718.72,703.907C4719.38,704.735 4719.39,704.732 4718.93,703.798C4718.68,703.271 4718.26,702.84 4718.01,702.84C4717.69,702.84 4717.68,702.674 4717.98,702.307C4718.45,701.733 4718.62,700.707 4718.55,698.981C4718.5,698.001 4718.25,697.844 4716.05,697.429C4706.39,695.611 4703.63,694.754 4702.15,693.113C4701.45,692.342 4701.43,692.145 4701.97,691.369C4702.31,690.887 4702.68,690.589 4702.8,690.706C4703.11,691.02 4705.81,690.04 4706.67,689.297C4707.34,688.719 4707.5,688.729 4708.24,689.401C4708.92,690.013 4709.48,690.093 4711.33,689.844C4712.58,689.676 4713.79,689.423 4714.02,689.282C4715.07,688.646 4720.34,689.322 4722.69,690.392C4725.58,691.715 4726.57,692.792 4726.59,694.641C4726.6,695.894 4726.48,696.025 4725.34,696.025C4724.21,696.025 4724.02,696.223 4723.59,697.821C4723.24,699.119 4723.23,699.661 4723.57,699.774C4723.83,699.861 4724.04,700.933 4724.04,702.208C4724.04,704.138 4723.9,704.529 4723.16,704.766C4722.54,704.962 4722.36,705.258 4722.57,705.753C4722.86,706.453 4722.95,706.857 4723.45,709.548C4723.6,710.309 4723.88,710.932 4724.08,710.932C4724.52,710.932 4725.8,713.293 4725.51,713.577C4725.41,713.685 4725.7,714.882 4726.16,716.236C4726.63,717.591 4726.9,718.888 4726.75,719.12C4726.44,719.622 4727.39,722.803 4728.12,723.71C4729.32,725.211 4730.32,727.782 4730,728.608C4729.78,729.193 4729.94,729.742 4730.51,730.362C4730.96,730.859 4731.48,731.817 4731.67,732.492C4731.93,733.44 4732.24,733.705 4733.03,733.658C4733.6,733.624 4736.03,733.479 4738.44,733.336C4741.52,733.152 4743.67,733.256 4745.69,733.685C4747.27,734.02 4749.37,734.408 4750.37,734.545C4752.61,734.853 4754.43,736.3 4754.06,737.472C4753.88,738.016 4753.96,738.198 4754.27,738.006C4754.53,737.846 4754.74,737.371 4754.74,736.95C4754.74,736.399 4755.44,736.853 4757.23,738.572C4759.72,740.953 4761.23,743.764 4761.05,745.674C4761,746.159 4761.27,747.213 4761.64,748.017C4762.01,748.82 4762.45,750.582 4762.61,751.933C4762.77,753.283 4763.03,754.308 4763.19,754.211C4763.35,754.114 4763.49,754.761 4763.5,755.649C4763.51,756.801 4763.36,757.203 4762.97,757.052C4762.66,756.935 4762.41,757.032 4762.41,757.266C4762.41,757.5 4762.73,757.813 4763.11,757.961C4764.27,758.404 4763.67,765.42 4762.18,768.914C4761.55,770.405 4761,772.057 4760.97,772.584C4760.94,773.111 4760.78,773.542 4760.6,773.542C4760.43,773.542 4760.28,773.808 4760.28,774.133C4760.28,774.458 4759.69,775.177 4758.96,775.73C4755.98,778.002 4754.93,778.893 4754.41,779.577C4753.67,780.582 4747.63,784.188 4747.28,783.839C4747.12,783.681 4746.74,783.893 4746.44,784.309C4746,784.909 4745.06,785.111 4741.89,785.284C4738.43,785.473 4737.84,785.405 4737.44,784.77L4737.44,784.77ZM4740.4,781.635C4743.1,781.635 4748.14,778.859 4751.41,775.565C4752.98,773.984 4754.14,772.69 4753.98,772.69C4753.82,772.69 4754.12,772.392 4754.64,772.027C4755.16,771.663 4755.59,771.146 4755.59,770.879C4755.59,770.612 4756.05,769.712 4756.62,768.88C4757.27,767.927 4757.73,766.536 4757.85,765.125C4757.96,763.892 4758.24,762.647 4758.47,762.357C4759.07,761.605 4759.44,757.726 4758.88,758.07C4758.63,758.224 4758.57,758.133 4758.74,757.858C4758.9,757.592 4758.84,757.007 4758.6,756.556C4758.3,755.99 4758.3,755.328 4758.62,754.409C4758.97,753.407 4758.96,752.924 4758.56,752.447C4758.25,752.07 4758.13,751.224 4758.27,750.362C4758.45,749.287 4758.31,748.73 4757.73,748.209C4756.84,747.403 4756.32,745.858 4756.94,745.858C4757.17,745.858 4757.05,745.556 4756.68,745.188C4756.32,744.82 4756.01,744.33 4756.01,744.098C4756.01,743.867 4755.87,743.768 4755.69,743.878C4755.14,744.22 4754.04,743.149 4753.61,741.842C4753.38,741.156 4752.82,740.389 4752.36,740.138C4751.91,739.887 4751.4,739.49 4751.22,739.256C4751.03,738.996 4750.91,739.05 4750.9,739.393C4750.9,739.703 4750.56,739.893 4750.15,739.814C4749.08,739.608 4749.19,738.367 4750.26,738.551C4750.73,738.632 4750.97,738.558 4750.81,738.387C4750.28,737.854 4748.34,737.813 4748.33,738.335C4748.33,738.655 4748.2,738.628 4747.97,738.261C4747.77,737.948 4747.43,737.73 4747.23,737.775C4746.33,737.972 4742.66,737.327 4742.12,736.88C4741.22,736.134 4734.48,737.467 4734.09,738.466C4733.98,738.768 4734.15,739.931 4734.48,741.052C4734.82,742.172 4735.12,743.856 4735.16,744.793C4735.26,747.09 4735.94,749.519 4737.13,751.777C4737.66,752.808 4738.11,754.131 4738.11,754.719C4738.11,755.306 4738.55,756.379 4739.08,757.104C4739.62,757.829 4740.38,758.941 4740.78,759.575L4741.51,760.727L4739.98,761.452C4738.69,762.064 4738.4,762.084 4738.09,761.583C4737.88,761.256 4737.09,760.949 4736.31,760.901C4735.54,760.853 4734.62,760.78 4734.27,760.739C4733.92,760.697 4733.32,760.792 4732.94,760.949C4732.45,761.157 4732.11,760.872 4731.71,759.906C4731.4,759.175 4731.04,758.734 4730.9,758.926C4730.76,759.117 4730.17,759.34 4729.58,759.421C4728.99,759.502 4728.46,759.708 4728.4,759.878C4728.14,760.559 4725.63,759.786 4725.41,758.959C4725.23,758.282 4724.93,758.161 4723.87,758.34C4723.14,758.462 4722.16,758.693 4721.69,758.852C4721.1,759.054 4721.01,759.02 4721.4,758.738C4721.83,758.434 4721.6,758.162 4720.48,757.633C4718.64,756.76 4718.01,756.749 4719.13,757.61C4719.98,758.254 4719.98,758.269 4719.16,758.874C4718.26,759.536 4717.06,759.617 4715.74,759.103C4714.95,758.793 4714.96,758.767 4715.85,758.534C4716.89,758.262 4717.14,757.357 4716.17,757.357C4715.3,757.357 4715.04,757.939 4714.81,760.405C4714.61,762.648 4715.54,767.27 4716.62,769.368C4716.95,770.001 4717.22,770.875 4717.22,771.312C4717.22,771.748 4717.79,772.656 4718.49,773.329C4719.2,774.003 4719.77,774.805 4719.77,775.113C4719.77,775.42 4720.11,775.678 4720.52,775.686C4721.37,775.702 4722.74,776.807 4723.44,778.035C4723.71,778.492 4724.19,778.876 4724.51,778.889C4724.84,778.901 4725.72,779.236 4726.47,779.634C4727.22,780.032 4728.52,780.357 4729.37,780.357C4730.21,780.357 4731.5,780.666 4732.23,781.044C4733.14,781.515 4734.13,781.653 4735.37,781.483C4736.75,781.294 4737.23,781.387 4737.42,781.88C4737.61,782.376 4737.86,782.421 4738.5,782.079C4738.96,781.835 4739.81,781.635 4740.4,781.635L4740.4,781.635ZM4743.44,738.617C4743.58,738.383 4743.98,738.191 4744.31,738.191C4744.65,738.191 4744.93,738.383 4744.93,738.617C4744.93,738.851 4744.53,739.043 4744.05,739.043C4743.57,739.043 4743.29,738.851 4743.44,738.617ZM4721.9,778.227C4721.9,777.993 4721.61,777.801 4721.24,777.801C4720.88,777.801 4720.69,777.993 4720.84,778.227C4720.98,778.462 4721.28,778.653 4721.5,778.653C4721.73,778.653 4721.9,778.462 4721.9,778.227ZM4628.11,777.267C4628.68,777.034 4630.65,776.691 4633.01,776.412C4633.48,776.356 4633.96,776.212 4634.07,776.092C4634.19,775.972 4635.34,775.334 4636.63,774.676C4637.92,774.017 4639.98,772.938 4641.22,772.277C4642.45,771.616 4643.45,771.151 4643.45,771.244C4643.45,771.336 4644.25,770.637 4645.23,769.69C4646.21,768.737 4647.27,768.068 4647.59,768.192C4647.91,768.316 4648.3,768.085 4648.44,767.679C4648.59,767.273 4649.84,765.809 4651.23,764.425C4653.43,762.238 4654.21,761.108 4654.81,759.274C4655.58,756.891 4655.94,753.625 4655.96,748.626C4655.98,743.64 4655.84,742.258 4655.11,740.193L4654.23,737.723L4655.56,737.951C4656.73,738.152 4656.67,738.076 4655.03,737.299C4653.56,736.6 4653.23,736.245 4653.4,735.568C4653.57,734.94 4653.46,734.78 4652.99,734.96C4652.64,735.094 4651.65,734.723 4650.78,734.135C4649.92,733.547 4648.11,732.757 4646.76,732.378C4644.2,731.66 4643.97,731.454 4644.82,730.61C4645.4,730.028 4645.44,730.036 4641.84,729.929C4640.37,729.886 4638.97,729.971 4638.73,730.119C4638.37,730.344 4638.11,731.338 4637.94,733.186C4637.93,733.362 4637.61,733.506 4637.23,733.506C4636.65,733.506 4636.59,733.881 4636.85,736.072C4637.05,737.824 4636.98,738.832 4636.64,739.246C4636.36,739.58 4636.26,740.23 4636.4,740.69C4636.55,741.15 4636.47,741.65 4636.22,741.801C4635.98,741.951 4635.78,742.468 4635.78,742.948C4635.78,743.787 4635.74,743.781 4634.91,742.817L4634.03,741.811L4634.72,743.234C4635.62,745.074 4635.22,747.991 4634.03,748.302C4633.18,748.525 4632.9,749.265 4633.68,749.265C4633.96,749.265 4634.01,749.633 4633.82,750.223C4633.65,750.75 4633.47,751.469 4633.44,751.82C4633.2,753.942 4632.67,756.109 4632.32,756.32C4632.11,756.454 4632.04,756.743 4632.17,756.961C4632.31,757.179 4632.23,757.357 4631.99,757.357C4631.76,757.357 4631.61,757.866 4631.65,758.487C4631.71,759.389 4631.49,759.683 4630.56,759.941C4629.91,760.119 4629.38,760.112 4629.38,759.926C4629.38,759.739 4629,759.486 4628.53,759.363C4627.71,759.148 4627.31,758.209 4628.04,758.209C4628.24,758.209 4628.43,756.875 4628.46,755.245C4628.5,753.03 4628.78,751.719 4629.59,750.055C4630.18,748.83 4630.66,747.48 4630.66,747.056C4630.66,746.56 4630.98,746.283 4631.54,746.283C4632.02,746.283 4632.31,746.106 4632.18,745.89C4631.74,745.179 4631.59,742.03 4631.98,741.786C4632.19,741.655 4632.37,741.214 4632.37,740.807C4632.37,740.399 4632.59,739.843 4632.86,739.571C4633.14,739.299 4633.4,738.542 4633.46,737.889C4633.69,735.175 4634.25,732.844 4634.79,732.302C4635.11,731.983 4635.29,731.215 4635.19,730.591C4635.08,729.969 4634.98,729.288 4634.96,729.079C4634.94,728.868 4633.69,728.814 4632.15,728.957C4629.95,729.162 4628.74,729.585 4626.29,731.002C4623.37,732.693 4619.43,736.28 4617.92,738.617C4617.11,739.887 4616.93,740.134 4615.53,741.882C4613.31,744.645 4611.37,750.526 4611.33,754.589C4611.27,760.083 4615.53,771.395 4618.64,773.998C4622.18,776.969 4625.78,778.212 4628.11,777.267L4628.11,777.267ZM4639.5,776.127C4639.47,775.675 4639.3,775.394 4639.12,775.502C4638.94,775.61 4638.91,775.98 4639.04,776.324C4639.38,777.191 4639.58,777.105 4639.5,776.127ZM4642.18,773.993C4642.18,773.491 4641.34,772.953 4641.04,773.258C4640.73,773.563 4641.27,774.394 4641.77,774.394C4641.99,774.394 4642.18,774.214 4642.18,773.993ZM4646.86,772.503C4646.86,772.053 4646.05,771.864 4645.8,772.257C4645.66,772.496 4645.84,772.69 4646.2,772.69C4646.57,772.69 4646.86,772.606 4646.86,772.503ZM4694.19,761.358C4694.19,761.266 4693.9,761.191 4693.55,761.191C4693.2,761.191 4692.91,761.376 4692.91,761.603C4692.91,761.83 4693.2,761.905 4693.55,761.77C4693.9,761.636 4694.19,761.45 4694.19,761.358ZM4656.03,760.339C4655.89,760.104 4656.07,759.913 4656.43,759.913C4656.8,759.913 4657.1,759.739 4657.1,759.527C4657.1,759.314 4656.71,759.241 4656.24,759.363C4655.37,759.592 4655.17,759.979 4655.68,760.481C4656.11,760.91 4656.33,760.821 4656.03,760.339ZM4702.72,758.853C4702.43,758.504 4702.01,758.336 4701.77,758.48C4701.52,758.639 4701.58,758.885 4701.93,759.108C4702.85,759.69 4703.3,759.545 4702.72,758.853ZM4735.97,757.834C4735.97,757.689 4735.58,756.324 4735.1,754.802C4733.7,750.353 4732.65,746.28 4732.12,743.193C4731.85,741.611 4731.45,740.21 4731.24,740.08C4731.03,739.951 4730.86,739.377 4730.86,738.805C4730.86,737.257 4729.71,737.485 4726.79,739.612C4723.56,741.962 4723.22,742.387 4722.83,744.641C4722.51,746.491 4722.51,746.496 4720.69,746.496C4718.94,746.496 4718.82,746.582 4717.72,748.626C4717.09,749.797 4716.25,751.654 4715.86,752.752C4714.97,755.224 4715.34,755.649 4718.58,755.899C4721.51,756.126 4727.44,756.939 4730.48,757.531C4733.24,758.067 4735.98,758.218 4735.97,757.834ZM4709.54,757.595C4709.54,757.492 4709.35,757.289 4709.11,757.144C4708.88,757 4708.69,757.084 4708.69,757.332C4708.69,757.58 4708.88,757.783 4709.11,757.783C4709.35,757.783 4709.54,757.699 4709.54,757.595ZM4706.13,756.08C4706.13,755.845 4706.05,755.654 4705.94,755.654C4705.84,755.654 4705.64,755.845 4705.49,756.08C4705.35,756.314 4705.43,756.505 4705.68,756.505C4705.93,756.505 4706.13,756.314 4706.13,756.08ZM4760.9,756.109C4761.03,755.891 4760.98,755.612 4760.78,755.489C4760.58,755.366 4760.42,755.544 4760.42,755.885C4760.42,756.603 4760.55,756.666 4760.9,756.109ZM4710.82,754.79C4710.82,754.432 4711.11,753.728 4711.46,753.224C4711.81,752.721 4712.14,751.816 4712.19,751.213C4712.24,750.61 4712.45,750.117 4712.65,750.117C4712.85,750.117 4712.89,749.728 4712.73,749.252C4712.45,748.347 4713.97,746.305 4714.94,746.291C4715.21,746.287 4715.86,745.405 4716.38,744.331C4716.9,743.257 4717.79,741.867 4718.37,741.243C4718.94,740.618 4719.73,739.755 4720.12,739.324C4721.01,738.356 4727.33,735.21 4728.39,735.21C4729.21,735.21 4729.17,734.233 4728.25,731.778C4728.02,731.179 4727.8,729.837 4727.75,728.796C4727.69,727.631 4727.43,726.811 4727.06,726.661C4726.73,726.527 4726.4,726.144 4726.33,725.809C4726.27,725.474 4725.73,723.922 4725.14,722.358C4724.56,720.795 4724.01,719.07 4723.94,718.525C4723.86,717.98 4723.66,717.307 4723.48,717.029C4723.31,716.751 4723.27,715.744 4723.38,714.793C4723.51,713.814 4723.42,713.062 4723.19,713.062C4722.66,713.062 4721.37,710.594 4721.66,710.131C4721.78,709.938 4721.6,709.416 4721.27,708.972C4720.7,708.233 4720.65,708.227 4720.64,708.909C4720.63,709.319 4720.47,709.654 4720.27,709.654C4719.95,709.654 4715.3,718.463 4715.3,719.071C4715.3,719.215 4714.79,720.461 4714.16,721.841C4712.94,724.557 4709.92,733.907 4709.71,735.635C4709.64,736.221 4709.29,737.515 4708.94,738.51C4708.59,739.506 4708.41,740.32 4708.55,740.32C4708.68,740.32 4708.57,740.588 4708.3,740.916C4707.82,741.496 4707.61,742.158 4707.12,744.793C4706.69,747.08 4706.72,747.759 4707.34,748.741C4708.03,749.841 4707.78,753.028 4706.98,753.528C4706.6,753.762 4706.6,754.033 4706.99,754.657C4707.65,755.707 4710.82,755.817 4710.82,754.79L4710.82,754.79ZM4631.52,753.499C4631.52,753.044 4631.35,752.672 4631.14,752.672C4630.64,752.672 4630.17,753.918 4630.48,754.421C4630.85,755.022 4631.52,754.43 4631.52,753.499ZM4658.16,753.524C4658.31,753.29 4658.3,752.886 4658.14,752.627C4657.85,752.163 4657.12,752.873 4657.11,753.63C4657.1,754.097 4657.86,754.021 4658.16,753.524L4658.16,753.524ZM4660.51,752.672C4660.51,752.438 4660.32,752.246 4660.08,752.246C4659.85,752.246 4659.66,752.438 4659.66,752.672C4659.66,752.906 4659.85,753.098 4660.08,753.098C4660.32,753.098 4660.51,752.906 4660.51,752.672ZM4706.61,750.633C4706.31,750.53 4705.85,750.649 4705.61,750.897C4705.29,751.213 4705.45,751.268 4706.16,751.083C4706.74,750.932 4706.93,750.739 4706.61,750.633ZM4759.16,749.882C4759.31,749.502 4759.23,749.332 4758.99,749.481C4758.76,749.624 4758.57,749.921 4758.57,750.142C4758.57,750.754 4758.88,750.619 4759.16,749.882ZM4704,748.388C4704,747.905 4703.81,747.629 4703.57,747.774C4703.34,747.919 4703.15,748.313 4703.15,748.651C4703.15,748.989 4703.34,749.265 4703.57,749.265C4703.81,749.265 4704,748.87 4704,748.388ZM4761.13,748.839C4761.13,748.605 4760.93,748.413 4760.68,748.413C4760.43,748.413 4760.35,748.605 4760.49,748.839C4760.64,749.073 4760.84,749.265 4760.94,749.265C4761.05,749.265 4761.13,749.073 4761.13,748.839ZM4660.51,747.987C4660.51,747.753 4660.12,747.561 4659.66,747.561C4659.19,747.561 4658.8,747.375 4658.8,747.149C4658.8,746.922 4658.49,746.857 4658.1,747.004C4657.47,747.246 4657.48,747.327 4658.19,747.843C4659.1,748.512 4660.51,748.599 4660.51,747.987L4660.51,747.987ZM4688.73,744.061C4688.42,743.756 4688.22,743.731 4688.22,743.998C4688.22,744.566 4688.73,745.07 4689.01,744.786C4689.13,744.664 4689,744.339 4688.73,744.061L4688.73,744.061ZM4755.9,741.767C4755.76,741.625 4755.39,741.61 4755.08,741.733C4754.74,741.869 4754.84,741.97 4755.34,741.991C4755.79,742.009 4756.04,741.908 4755.9,741.767L4755.9,741.767ZM4660.75,740.52C4659.91,739.886 4659.23,739.708 4659.23,740.121C4659.23,740.328 4660.86,741.1 4661.36,741.132C4661.48,741.139 4661.2,740.864 4660.75,740.52ZM4658.38,737.694C4658.38,737.499 4658.09,737.339 4657.74,737.339C4657.39,737.339 4657.1,737.499 4657.1,737.694C4657.1,737.889 4657.39,738.049 4657.74,738.049C4658.09,738.049 4658.38,737.889 4658.38,737.694ZM4635.58,736.509C4635.42,736.255 4635.1,736.17 4634.85,736.321C4634.57,736.497 4634.61,736.717 4634.98,736.943C4635.66,737.366 4635.97,737.142 4635.58,736.509ZM4675.01,733.608C4675.01,733.43 4674.57,733.02 4674.05,732.696C4673.09,732.109 4673.09,732.111 4673.9,733.02C4674.77,733.995 4675.01,734.122 4675.01,733.608ZM4671.81,729.673C4671.66,729.438 4671.35,729.247 4671.12,729.247C4670.88,729.247 4670.81,729.438 4670.95,729.673C4671.1,729.907 4671.41,730.098 4671.65,730.098C4671.88,730.098 4671.95,729.907 4671.81,729.673ZM4639.62,722.351C4639.62,721.791 4638.65,722.142 4638.44,722.778C4638.33,723.09 4638.53,723.185 4638.94,723.026C4639.31,722.883 4639.62,722.58 4639.62,722.351ZM4663.92,721.154C4663.92,720.92 4663.73,720.728 4663.49,720.728C4663.26,720.728 4663.07,720.92 4663.07,721.154C4663.07,721.388 4663.26,721.58 4663.49,721.58C4663.73,721.58 4663.92,721.388 4663.92,721.154ZM4644.31,707.099C4644.31,706.865 4644.1,706.673 4643.86,706.673C4643.61,706.673 4643.52,706.865 4643.67,707.099C4643.81,707.333 4644.02,707.525 4644.12,707.525C4644.22,707.525 4644.31,707.333 4644.31,707.099ZM4648.57,706.247C4648.57,706.013 4648.37,705.821 4648.12,705.821C4647.87,705.821 4647.79,706.013 4647.93,706.247C4648.08,706.481 4648.28,706.673 4648.38,706.673C4648.49,706.673 4648.57,706.481 4648.57,706.247ZM4690.35,704.356C4690.35,704.252 4690.16,704.049 4689.93,703.905C4689.69,703.76 4689.5,703.844 4689.5,704.092C4689.5,704.34 4689.69,704.543 4689.93,704.543C4690.16,704.543 4690.35,704.459 4690.35,704.356ZM4689.07,703.95C4689.07,703.858 4688.78,703.669 4688.41,703.529C4688.03,703.384 4687.86,703.455 4688.01,703.696C4688.26,704.101 4689.07,704.295 4689.07,703.95ZM4699.31,702.84C4699.31,702.605 4699.11,702.414 4698.86,702.414C4698.61,702.414 4698.52,702.605 4698.67,702.84C4698.81,703.074 4699.02,703.266 4699.12,703.266C4699.22,703.266 4699.31,703.074 4699.31,702.84ZM4718.49,695.599C4718.49,695.365 4718.19,695.173 4717.83,695.173C4717.46,695.173 4717.28,695.365 4717.43,695.599C4717.57,695.833 4717.87,696.025 4718.09,696.025C4718.31,696.025 4718.49,695.833 4718.49,695.599ZM4713.26,694.916C4713.12,694.774 4712.75,694.759 4712.44,694.882C4712.11,695.018 4712.21,695.119 4712.7,695.14C4713.15,695.158 4713.4,695.057 4713.26,694.916L4713.26,694.916ZM4695.73,719.373C4695.86,719.174 4696.14,719.121 4696.35,719.256C4696.91,719.601 4696.85,719.735 4696.13,719.735C4695.79,719.735 4695.61,719.572 4695.73,719.373ZM4624.35,698.922C4624.07,698.641 4623.84,698.018 4623.84,697.537C4623.84,697.057 4623.43,695.994 4622.93,695.174C4621.85,693.411 4621.68,691.74 4622.53,691.078C4623.05,690.675 4623.05,690.395 4622.57,689.229C4622.13,688.174 4622.12,687.781 4622.51,687.54C4622.79,687.367 4622.91,686.952 4622.78,686.617C4622.55,686.009 4623.62,684.717 4626.56,682.066C4627.41,681.298 4628.11,680.484 4628.11,680.256C4628.11,679.74 4628.39,679.733 4629.31,680.225C4629.91,680.549 4630.03,680.396 4630.03,679.271C4630.03,678.014 4630.14,677.911 4631.94,677.61C4634.68,677.151 4646.02,677.258 4646.94,677.751C4647.37,677.979 4648.66,678.222 4649.82,678.291C4651.32,678.38 4652.36,678.749 4653.44,679.576C4655.06,680.806 4655.32,681.748 4654.4,683.004C4653.9,683.684 4653.72,683.706 4652.82,683.192C4652.26,682.871 4651.54,682.369 4651.22,682.077C4650.52,681.429 4648.15,681.367 4648.15,681.995C4648.15,682.243 4647.97,682.336 4647.75,682.201C4647.53,682.066 4647.23,682.154 4647.08,682.396C4646.93,682.638 4646.64,682.734 4646.44,682.609C4646.24,682.484 4645.95,682.576 4645.81,682.814C4645.64,683.083 4644.86,682.897 4643.75,682.322C4642.77,681.814 4641.63,681.239 4641.22,681.045C4640.07,680.495 4635.81,680.639 4633.27,681.315C4631.87,681.686 4630.43,682.438 4629.62,683.226C4628.88,683.941 4627.98,684.526 4627.62,684.526C4627.17,684.526 4626.97,684.947 4626.97,685.886C4626.97,686.634 4626.76,687.318 4626.49,687.404C4626.23,687.491 4626.13,687.841 4626.26,688.181C4626.66,689.215 4626.67,692.798 4626.28,693.335C4625.97,693.764 4626.8,695.616 4627.67,696.451C4627.79,696.568 4627.89,697.126 4627.88,697.689C4627.87,699.158 4625.44,700.006 4624.35,698.922L4624.35,698.922ZM4649.85,686.987C4649.85,686.76 4650.17,686.029 4650.57,685.363C4651.13,684.403 4651.44,684.235 4652.03,684.553C4652.51,684.81 4652.88,684.8 4653.05,684.527C4653.45,683.882 4654.11,684.015 4654.11,684.739C4654.11,685.138 4653.71,685.377 4653.03,685.377C4652.1,685.377 4652.01,685.487 4652.39,686.203C4652.64,686.658 4652.69,687.115 4652.52,687.22C4651.91,687.581 4649.85,687.4 4649.85,686.987L4649.85,686.987Z" style="fill-rule:nonzero;"/>
        </g>
        <g transform="matrix(0.591782,0.197394,-0.193852,0.581162,-1116.76,-232.39)">
            <path d="M887.202,1634.73C887.202,1634.73 660.069,1188.93 1057.9,1011.17C1057.9,1011.17 1379.56,906.775 1510.76,1013.99C1510.76,1013.99 1773.71,1104.73 1752.98,1459.79C1752.98,1459.79 1763.29,1792.92 1419.06,1831.79C1419.06,1831.79 1087.53,1889.63 887.202,1634.73Z" style="fill:white;stroke:rgb(176,242,182);stroke-width:15.5px;"/>
        </g>
        <g id="path12" serif:id="path1" transform="matrix(3.00326,-1.73393,1.45593,2.52174,-16155.4,6777.63)">
            <path d="M4753.75,969.824C4751.94,968.224 4749.92,962.957 4749.81,959.539C4749.74,957.587 4749.49,956.395 4749.03,955.885C4748.65,955.469 4748.34,954.642 4748.34,954.048C4748.34,953.454 4747.96,952.488 4747.5,951.903C4747.04,951.317 4746.78,950.716 4746.93,950.567C4747.08,950.419 4746.98,950.297 4746.7,950.297C4746.43,950.297 4746.21,950.054 4746.21,949.757C4746.21,949.46 4745.73,948.512 4745.14,947.65C4744.56,946.788 4744.08,945.491 4744.08,944.766C4744.08,944.042 4743.72,942.738 4743.28,941.868C4742.85,940.999 4742.37,939.486 4742.22,938.506C4741.92,936.579 4740.07,930.479 4739.11,928.29C4738.79,927.547 4738.4,926.339 4738.26,925.604C4738.11,924.87 4737.63,923.568 4737.2,922.712C4736.76,921.856 4736.4,920.668 4736.4,920.074C4736.39,918.782 4735.44,915.962 4734.2,913.527C4733.7,912.556 4733.22,911.088 4733.12,910.266C4733.02,909.443 4732.68,908.073 4732.35,907.221C4732.02,906.369 4731.88,905.555 4732.02,905.411C4732.16,905.268 4732.06,905.15 4731.8,905.15C4731.53,905.15 4731.41,904.882 4731.54,904.554C4731.67,904.227 4731.56,903.83 4731.31,903.673C4730.71,903.302 4729.52,900.473 4729.79,900.042C4729.9,899.859 4729.72,899.483 4729.39,899.206C4729.06,898.929 4728.66,898.168 4728.52,897.514C4728.28,896.412 4726.29,894.077 4725.46,893.928C4725.27,893.892 4725.13,893.626 4725.16,893.335C4725.19,893.045 4725.07,892.9 4724.89,893.014C4724.7,893.127 4724.44,892.933 4724.31,892.583C4724.17,892.233 4723.79,891.947 4723.46,891.947C4723.13,891.947 4722.61,891.645 4722.31,891.277C4722,890.908 4721.01,890.228 4720.1,889.766C4718.91,889.16 4718.51,888.722 4718.68,888.2C4718.8,887.801 4718.71,887.187 4718.48,886.836C4718.12,886.28 4718.02,886.277 4717.67,886.815C4717.45,887.155 4717.37,887.587 4717.48,887.774C4717.75,888.201 4716.19,888.224 4715.76,887.799C4715.59,887.627 4715.17,887.483 4714.83,887.48C4714.49,887.477 4713.78,886.612 4713.26,885.558C4712.73,884.504 4712.06,883.617 4711.77,883.588C4711.48,883.559 4711.1,883.489 4710.93,883.432C4710.75,883.376 4710.27,883.364 4709.86,883.406C4709.42,883.451 4708.95,883.054 4708.71,882.425C4708.49,881.843 4708.04,881.208 4707.71,881.014C4707.38,880.819 4706.89,880.251 4706.63,879.751C4706.35,879.225 4705.56,878.732 4704.75,878.58C4702.79,878.212 4702.14,876.945 4702.02,873.265C4701.96,871.54 4701.81,870.022 4701.68,869.893C4701.27,869.484 4701.42,867.651 4701.94,866.683C4702.57,865.53 4702.84,859.273 4702.28,858.928C4701.65,858.545 4701.78,857.143 4702.47,856.883C4702.88,856.723 4703.04,856.003 4703,854.494C4702.96,853.307 4703.03,852.321 4703.15,852.303C4705.23,851.989 4705.57,851.716 4704.9,850.91C4704.01,849.828 4704.78,848.935 4706.49,849.086C4707.35,849.162 4708.34,849.338 4708.69,849.477C4709.04,849.617 4709.71,849.792 4710.18,849.866C4710.74,849.955 4711.08,850.388 4711.16,851.14C4711.35,852.693 4710.11,853.36 4708.55,852.551C4707.47,851.992 4707.41,852.014 4707.41,852.965C4707.41,853.517 4707.18,854.044 4706.91,854.136C4706.63,854.228 4706.55,854.535 4706.72,854.817C4707.15,855.5 4707.84,855.038 4707.84,854.073C4707.84,853.512 4708.11,853.336 4708.88,853.42C4709.45,853.482 4710.11,853.649 4710.33,853.79C4710.56,853.93 4710.84,853.805 4710.94,853.51C4711.05,853.216 4711.29,853.55 4711.48,854.253C4711.66,854.956 4712.07,856.153 4712.39,856.913C4712.7,857.673 4712.98,858.44 4713,858.617C4713.03,858.793 4713.42,859.464 4713.88,860.106C4714.34,860.749 4714.6,861.447 4714.47,861.658C4714.34,861.869 4714.52,862.849 4714.87,863.836C4715.22,864.823 4715.41,865.773 4715.31,865.948C4715.2,866.123 4715.39,866.63 4715.72,867.074C4716.06,867.519 4716.34,868.487 4716.35,869.227C4716.36,870.336 4716.5,870.534 4717.17,870.359C4717.74,870.211 4718.07,870.426 4718.28,871.069C4718.44,871.591 4718.81,871.897 4719.13,871.776C4719.45,871.654 4719.79,871.937 4719.92,872.427C4720.04,872.903 4720.35,873.166 4720.6,873.011C4720.85,872.857 4721.05,872.933 4721.05,873.181C4721.05,873.429 4721.35,873.632 4721.7,873.632C4722.06,873.632 4722.47,873.919 4722.6,874.269C4722.74,874.619 4723.02,874.798 4723.23,874.668C4723.44,874.537 4723.72,874.698 4723.85,875.025C4723.97,875.352 4724.31,875.62 4724.6,875.62C4725.58,875.62 4727.48,877.152 4727.37,877.845C4727.31,878.222 4727.41,878.77 4727.59,879.063C4727.77,879.355 4727.74,879.595 4727.53,879.595C4726.93,879.595 4726.13,878.496 4726.48,878.149C4726.65,877.983 4726.44,877.979 4726.01,878.141C4725.48,878.344 4725.4,878.532 4725.74,878.744C4726.02,878.913 4726.27,879.222 4726.31,879.43C4726.35,879.638 4727.27,879.749 4728.36,879.676C4729.73,879.584 4730.95,879.833 4732.36,880.495C4734.31,881.41 4734.41,881.417 4734.95,880.671C4735.27,880.245 4735.41,879.713 4735.27,879.49C4735.13,879.261 4735.38,879.275 4735.84,879.523C4736.35,879.794 4736.9,879.813 4737.28,879.572C4737.81,879.235 4737.81,879.174 4737.25,879.125C4736.9,879.094 4736.47,879.091 4736.3,879.118C4735.91,879.179 4735.88,878.624 4736.23,877.719C4736.45,877.157 4736.61,877.201 4737.26,878.004C4737.69,878.527 4738.17,878.817 4738.34,878.647C4738.52,878.477 4738.43,878.064 4738.15,877.73C4737.76,877.258 4737.77,877.072 4738.2,876.9C4738.74,876.68 4738.24,876.117 4737.04,875.588C4736.8,875.482 4736.88,875.214 4737.23,874.972C4737.62,874.701 4738.12,874.689 4738.59,874.939C4739.52,875.439 4739.81,875.439 4739.81,874.938C4739.81,874.72 4739.44,874.423 4738.99,874.28C4738.05,873.982 4737.97,872.498 4738.87,872.151C4739.24,872.01 4739.64,872.399 4739.94,873.205C4740.5,874.669 4740.98,874.886 4740.89,873.63C4740.85,873.16 4740.47,872.515 4740.03,872.196C4739.31,871.667 4739.29,871.49 4739.84,870.175C4740.17,869.382 4740.39,868.566 4740.32,868.362C4740.26,868.158 4740.48,868.095 4740.81,868.224C4741.25,868.39 4741.36,868.222 4741.21,867.637C4741.09,867.186 4741.21,866.817 4741.47,866.817C4741.73,866.817 4741.94,866.53 4741.94,866.178C4741.94,865.827 4742.12,865.539 4742.32,865.539C4742.79,865.539 4743.39,866.828 4743.27,867.562C4743.23,867.855 4743.38,868.095 4743.61,868.095C4743.84,868.095 4744,867.328 4743.96,866.391C4743.91,864.967 4743.75,864.687 4743,864.687C4742.38,864.687 4741.89,864.199 4741.39,863.054C4740.99,862.155 4740.66,861.272 4740.66,861.092C4740.66,860.911 4740.19,860.387 4739.6,859.926C4739.01,859.466 4738.53,858.858 4738.53,858.576C4738.53,858.293 4737.94,857.539 4737.21,856.899C4736.28,856.088 4735.95,855.476 4736.1,854.882C4736.25,854.314 4736.05,853.879 4735.49,853.581C4734.19,852.886 4732.99,850.588 4732.99,848.776C4732.99,847.523 4732.85,847.189 4732.38,847.369C4731.97,847.526 4731.48,847.008 4730.89,845.789C4729.87,843.702 4729.78,842.724 4730.55,842.241C4730.84,842.054 4731.64,841.23 4732.31,840.41C4732.99,839.59 4733.7,838.919 4733.89,838.919C4734.07,838.919 4735.19,838.201 4736.37,837.322C4737.55,836.444 4738.82,835.725 4739.19,835.725C4740.8,835.725 4742.76,837.422 4742.78,838.838C4742.79,839.272 4742.99,839.486 4743.25,839.329C4743.86,838.952 4745.36,840.353 4745.36,841.303C4745.36,841.721 4745.55,842.182 4745.78,842.327C4746.02,842.472 4746.2,842.914 4746.2,843.31C4746.19,843.931 4746.14,843.942 4745.78,843.392C4745.55,843.04 4745.37,842.935 4745.36,843.157C4745.36,843.38 4745.12,843.332 4744.84,843.051C4744.56,842.77 4743.99,842.54 4743.57,842.54C4743.14,842.54 4742.8,842.366 4742.8,842.154C4742.8,841.941 4743.21,841.875 4743.71,842.005C4744.35,842.173 4744.56,842.074 4744.43,841.669C4744.21,841.033 4742.02,840.306 4741.22,840.605C4740.84,840.746 4740.81,840.517 4741.11,839.723C4741.66,838.287 4741.64,838.207 4740.77,838.35C4740.36,838.417 4739.81,838.335 4739.54,838.168C4739.26,837.989 4738.97,838.211 4738.84,838.712C4738.69,839.279 4738.78,839.462 4739.11,839.264C4739.66,838.934 4738.56,840.446 4737.89,840.936C4737.17,841.466 4736.72,841.296 4736.99,840.594C4737.41,839.507 4735.54,840.032 4734.76,841.223L4734.08,842.249L4736.27,841.959C4738.29,841.69 4738.52,841.753 4739.34,842.793C4739.83,843.412 4740.13,844.081 4740,844.281C4739.69,844.788 4741.7,845.231 4742.77,844.892C4743.55,844.644 4743.65,844.788 4743.65,846.131C4743.65,847.049 4743.44,847.661 4743.12,847.678C4742.82,847.693 4743.06,847.895 4743.64,848.126C4744.36,848.414 4744.75,848.405 4744.85,848.099C4744.93,847.853 4745.32,847.636 4745.71,847.617C4746.16,847.596 4746.23,847.504 4745.88,847.367C4745.59,847.248 4745.14,846.772 4744.9,846.309C4744.32,845.237 4745.05,844.244 4746.19,844.542C4746.84,844.712 4746.96,844.577 4746.77,843.86C4746.46,842.669 4747.22,842.715 4747.84,843.924C4748.7,845.599 4749.37,846.541 4750.94,848.32C4751.81,849.299 4752.61,850.735 4752.77,851.619C4752.94,852.48 4753.53,853.68 4754.09,854.285C4754.65,854.89 4755.01,855.642 4754.89,855.957C4754.77,856.272 4755.04,856.729 4755.5,856.973C4756.09,857.291 4756.27,857.724 4756.12,858.496C4756.01,859.09 4755.7,859.591 4755.43,859.608C4755.17,859.625 4754.52,859.72 4753.99,859.818C4753.46,859.917 4753.03,859.821 4753.03,859.606C4753.03,859.391 4751.88,859.249 4750.47,859.289C4749.07,859.33 4747.91,859.477 4747.91,859.617C4747.91,859.756 4748.3,860.223 4748.78,860.655C4749.26,861.086 4749.55,861.691 4749.43,861.999C4749.32,862.306 4749.41,862.558 4749.64,862.558C4749.88,862.558 4750.19,861.966 4750.33,861.243C4750.65,859.639 4751.67,859.155 4752.45,860.23C4752.9,860.835 4753.15,860.904 4753.53,860.522C4753.91,860.14 4754.19,860.145 4754.68,860.545C4755.2,860.969 4755.26,860.957 4754.97,860.479C4754.73,860.077 4754.8,859.952 4755.19,860.083C4755.82,860.292 4756.11,863.303 4755.53,863.656C4755.13,863.906 4755.53,866.383 4756.1,867.104C4756.34,867.411 4756.31,868.274 4756.02,869.34C4755.58,871 4755.48,871.076 4753.87,871.076C4752.17,871.076 4751.61,871.62 4752.83,872.086C4753.36,872.291 4753.38,872.482 4752.95,873.181C4752.56,873.799 4752.14,873.957 4751.38,873.767C4750.65,873.585 4750.44,873.656 4750.65,874.002C4750.82,874.275 4751.15,874.377 4751.39,874.231C4751.63,874.084 4751.51,874.56 4751.14,875.288C4750.76,876.017 4750.16,876.613 4749.8,876.613C4749.29,876.613 4749.21,876.931 4749.43,878.104C4749.59,878.953 4749.54,879.595 4749.31,879.595C4749.09,879.595 4748.88,879.834 4748.85,880.127C4748.56,882.471 4748.14,883.56 4747.43,883.745C4746.52,883.984 4746.39,884.521 4747.17,884.883C4747.59,885.082 4747.59,885.181 4747.17,885.38C4746.88,885.517 4746.64,885.996 4746.64,886.445C4746.64,886.894 4746.42,887.261 4746.16,887.261C4745.89,887.261 4745.78,887.637 4745.91,888.113C4746.03,888.581 4745.98,888.965 4745.8,888.965C4744.88,888.965 4744.97,894.619 4745.94,899.056C4746.1,899.782 4745.99,899.939 4745.43,899.762C4745.04,899.637 4745.32,900.08 4746.06,900.745C4747.63,902.157 4748.74,904.193 4748.98,906.124C4749.07,906.876 4749.27,908.019 4749.43,908.663C4749.67,909.623 4749.57,909.837 4748.92,909.848C4748.18,909.861 4748.18,909.898 4748.86,910.416C4749.3,910.753 4749.55,911.454 4749.5,912.212C4749.43,913.185 4749.57,913.428 4750.15,913.33C4750.7,913.238 4750.9,913.493 4750.9,914.294C4750.9,915.456 4751.5,916.718 4752.71,918.091C4753.92,919.461 4755.27,923.516 4755.26,925.73C4755.25,927.053 4755.45,927.86 4755.82,928C4756.59,928.296 4757.34,930.59 4757.05,931.759C4756.91,932.289 4757.06,932.975 4757.38,933.305C4757.69,933.632 4758.28,934.97 4758.69,936.279C4759.51,938.934 4759.57,939.365 4759.1,939.071C4758.92,938.96 4758.84,939.602 4758.93,940.498C4759.04,941.702 4759.31,942.186 4759.95,942.353C4760.53,942.506 4760.73,942.802 4760.55,943.266C4760.38,943.72 4760.46,943.849 4760.78,943.647C4761.11,943.446 4761.19,943.574 4761.02,944.024C4760.87,944.398 4760.89,944.765 4761.06,944.839C4761.69,945.118 4763.24,947.431 4763.03,947.777C4762.91,947.975 4763.21,948.927 4763.7,949.891C4764.29,951.047 4764.51,952.043 4764.34,952.817C4764.19,953.479 4764.39,954.901 4764.79,956.077C4765.76,958.948 4765.94,962.024 4765.16,962.67C4764.82,962.95 4764.54,963.623 4764.54,964.166C4764.54,964.709 4764.35,965.274 4764.11,965.421C4763.87,965.568 4763.79,965.88 4763.94,966.114C4764.08,966.348 4763.8,966.644 4763.31,966.773C4762.81,966.902 4762.41,967.154 4762.41,967.334C4762.41,967.513 4762.03,967.76 4761.56,967.882C4761.1,968.003 4760.53,968.601 4760.3,969.209C4760.06,969.817 4759.73,970.32 4759.54,970.325C4759.36,970.331 4758.24,970.445 4757.05,970.579C4755.18,970.788 4754.72,970.684 4753.75,969.823L4753.75,969.824ZM4754.73,960.757C4754.73,960.654 4754.54,960.451 4754.31,960.306C4754.07,960.162 4753.88,960.246 4753.88,960.494C4753.88,960.742 4754.07,960.945 4754.31,960.945C4754.54,960.945 4754.73,960.861 4754.73,960.757ZM4759.71,959.135C4759.59,958.842 4759.49,959.082 4759.49,959.668C4759.49,960.253 4759.59,960.493 4759.71,960.2C4759.83,959.907 4759.83,959.428 4759.71,959.135ZM4761.32,955.864C4761.46,955.646 4761.38,955.347 4761.14,955.2C4760.9,955.053 4760.7,955.231 4760.7,955.596C4760.7,956.344 4760.96,956.454 4761.32,955.864ZM4761.28,952.626C4761.07,952.072 4760.28,951.72 4760.28,952.179C4760.28,952.812 4760.85,953.662 4761.16,953.476C4761.36,953.352 4761.41,952.97 4761.28,952.626ZM4760.08,949.954C4759.94,949.823 4759.6,949.953 4759.31,950.244C4758.89,950.665 4758.94,950.714 4759.55,950.483C4759.97,950.323 4760.21,950.085 4760.08,949.954ZM4751.58,949.381C4751.92,948.831 4750.55,947.643 4749.98,947.994C4749.55,948.261 4750.33,949.871 4750.89,949.871C4751.1,949.871 4751.41,949.651 4751.58,949.381ZM4759.97,948.624C4760.12,948.029 4759.98,947.818 4759.43,947.859C4758.81,947.905 4758.76,948.055 4759.15,948.68C4759.74,949.62 4759.71,949.622 4759.97,948.624L4759.97,948.624ZM4748.66,945.506C4748.56,945.213 4748.02,944.92 4747.45,944.854C4746.45,944.739 4746.45,944.756 4747.25,945.387C4748.25,946.176 4748.9,946.23 4748.66,945.506ZM4755.28,937.497C4755.02,936.497 4754.31,936.833 4754.31,937.957C4754.31,938.477 4754.52,938.689 4754.9,938.544C4755.24,938.413 4755.4,937.969 4755.28,937.497ZM4754.73,926.02C4754.73,925.786 4754.53,925.594 4754.28,925.594C4754.03,925.594 4753.95,925.786 4754.1,926.02C4754.24,926.254 4754.44,926.446 4754.55,926.446C4754.65,926.446 4754.73,926.254 4754.73,926.02ZM4752.53,923.749C4752.61,923.328 4752.39,923.039 4751.99,923.039C4751.6,923.039 4751.32,923.403 4751.32,923.926C4751.32,924.964 4752.32,924.817 4752.53,923.749ZM4746.52,914.263C4746.38,914.121 4746.01,914.106 4745.7,914.229C4745.36,914.365 4745.46,914.466 4745.96,914.487C4746.41,914.505 4746.66,914.404 4746.52,914.263L4746.52,914.263ZM4748.56,913.325C4748.43,913.194 4748.09,913.324 4747.8,913.616C4747.38,914.036 4747.43,914.085 4748.04,913.854C4748.46,913.694 4748.69,913.456 4748.56,913.325ZM4744.68,909.577C4745.05,909.434 4745.36,909.134 4745.36,908.908C4745.36,908.316 4743.54,908.67 4743.33,909.303C4743.14,909.883 4743.62,909.981 4744.68,909.577ZM4740.43,908.587C4740.57,908.369 4740.48,908.07 4740.25,907.923C4740.01,907.776 4739.81,907.954 4739.81,908.319C4739.81,909.067 4740.07,909.178 4740.43,908.587ZM4744.39,903.189C4744.24,903.048 4743.88,903.032 4743.57,903.155C4743.23,903.291 4743.33,903.392 4743.83,903.413C4744.28,903.431 4744.53,903.331 4744.39,903.189L4744.39,903.189ZM4736.4,902.382C4736.4,902.315 4736.15,902.162 4735.83,902.042C4735.52,901.922 4735.26,902.075 4735.26,902.382C4735.26,902.688 4735.52,902.841 4735.83,902.721C4736.15,902.601 4736.4,902.449 4736.4,902.382ZM4745.57,902.595C4745.71,902.36 4745.63,902.169 4745.38,902.169C4745.13,902.169 4744.93,902.36 4744.93,902.595C4744.93,902.829 4745.01,903.02 4745.12,903.02C4745.22,903.02 4745.42,902.829 4745.57,902.595ZM4741.73,902.169C4741.59,901.934 4741.29,901.743 4741.07,901.743C4740.85,901.743 4740.66,901.934 4740.66,902.169C4740.66,902.403 4740.96,902.595 4741.33,902.595C4741.69,902.595 4741.88,902.403 4741.73,902.169ZM4730.01,896.632C4730.01,896.397 4729.92,896.206 4729.82,896.206C4729.72,896.206 4729.51,896.397 4729.37,896.632C4729.22,896.866 4729.31,897.058 4729.55,897.058C4729.8,897.058 4730.01,896.866 4730.01,896.632ZM4744.5,896.029C4744.22,895.753 4743.93,895.753 4743.66,896.029C4743.38,896.305 4743.52,896.449 4744.08,896.449C4744.63,896.449 4744.77,896.305 4744.5,896.029ZM4742.81,892.567C4743.26,892.033 4743.25,891.815 4742.8,891.396C4742.37,890.993 4742.31,890.997 4742.55,891.417C4742.72,891.727 4742.57,892.061 4742.19,892.208C4741.82,892.349 4741.52,892.635 4741.52,892.844C4741.52,893.439 4742.21,893.291 4742.81,892.567L4742.81,892.567ZM4736.16,886.884C4736.29,886.677 4735.87,886.406 4735.22,886.283C4733.9,886.03 4733.63,886.151 4734.04,886.807C4734.38,887.357 4735.83,887.41 4736.16,886.884L4736.16,886.884ZM4727.91,886.293C4727.85,885.783 4727.27,885.882 4727.09,886.431C4726.99,886.712 4727.15,886.865 4727.43,886.772C4727.71,886.678 4727.92,886.462 4727.91,886.293ZM4738.32,886.41C4738.47,886.175 4738.28,885.984 4737.92,885.984C4737.55,885.984 4737.25,886.175 4737.25,886.41C4737.25,886.644 4737.44,886.836 4737.65,886.836C4737.88,886.836 4738.18,886.644 4738.32,886.41ZM4723.4,885.984C4723.54,885.749 4723.47,885.558 4723.23,885.558C4723,885.558 4722.69,885.749 4722.55,885.984C4722.4,886.218 4722.47,886.41 4722.71,886.41C4722.94,886.41 4723.25,886.218 4723.4,885.984ZM4740.81,884.905C4740.48,884.025 4740.24,884.129 4740.24,885.157C4740.24,885.639 4740.42,885.921 4740.65,885.782C4740.87,885.644 4740.95,885.249 4740.81,884.905ZM4746.21,885.132C4746.21,884.898 4745.92,884.706 4745.57,884.706C4745.22,884.706 4744.93,884.898 4744.93,885.132C4744.93,885.366 4745.22,885.558 4745.57,885.558C4745.92,885.558 4746.21,885.366 4746.21,885.132ZM4730.55,883.837C4730.43,883.359 4729.77,882.683 4729.1,882.335C4728.43,881.987 4727.87,881.492 4727.87,881.236C4727.87,880.928 4727.65,880.952 4727.23,881.307C4726.68,881.762 4726.61,881.721 4726.83,881.039C4727.07,880.294 4727.05,880.29 4726.6,880.983C4726.05,881.839 4726.43,882.733 4727.21,882.433C4727.5,882.322 4728.27,882.878 4728.93,883.668C4730.21,885.195 4730.93,885.27 4730.55,883.837L4730.55,883.837ZM4737.25,882.789C4737.57,882.204 4737.98,881.725 4738.18,881.725C4738.37,881.725 4738.53,881.437 4738.53,881.086C4738.53,880.317 4737.73,880.278 4736.77,881.001C4736.1,881.513 4735.78,883.854 4736.38,883.854C4736.55,883.854 4736.94,883.375 4737.25,882.789L4737.25,882.789ZM4732.49,881.854C4732.06,881.329 4731.94,881.337 4731.61,881.914C4731.08,882.866 4731.63,883.603 4732.39,882.966C4732.87,882.573 4732.89,882.33 4732.49,881.854L4732.49,881.854ZM4742.66,881.725C4742.55,880.312 4742.66,880.021 4743.3,880.021C4743.73,880.021 4744.08,879.727 4744.08,879.369C4744.08,879.01 4744.38,878.6 4744.75,878.458C4745.3,878.249 4745.32,878.128 4744.86,877.832C4744.39,877.531 4744.4,877.393 4744.92,877.063C4745.69,876.565 4745.21,875.989 4744.31,876.335C4743.95,876.473 4743.65,876.976 4743.65,877.452C4743.65,878.063 4743.37,878.319 4742.69,878.324C4741.98,878.329 4741.88,878.426 4742.32,878.702C4743.02,879.144 4742.59,880.021 4741.68,880.021C4741.22,880.021 4741.12,880.276 4741.32,880.926C4741.5,881.488 4741.39,881.987 4741.03,882.244C4740.58,882.564 4740.61,882.606 4741.16,882.431C4741.56,882.304 4741.98,882.474 4742.11,882.816C4742.54,883.945 4742.8,883.443 4742.66,881.725L4742.66,881.725ZM4711.67,882.389C4711.67,882.285 4711.48,882.082 4711.25,881.938C4711.01,881.793 4710.82,881.877 4710.82,882.125C4710.82,882.373 4711.01,882.576 4711.25,882.576C4711.48,882.576 4711.67,882.492 4711.67,882.389ZM4721.54,881.619C4721.1,881.179 4720.2,881.525 4720.2,882.136C4720.2,882.334 4720.6,882.393 4721.08,882.267C4721.65,882.116 4721.82,881.891 4721.54,881.619ZM4725.74,881.299C4725.74,881.064 4725.66,880.873 4725.55,880.873C4725.45,880.873 4725.25,881.064 4725.1,881.299C4724.96,881.533 4725.04,881.725 4725.29,881.725C4725.54,881.725 4725.74,881.533 4725.74,881.299ZM4730.86,881.299C4730.86,881.064 4730.77,880.873 4730.67,880.873C4730.57,880.873 4730.36,881.064 4730.22,881.299C4730.07,881.533 4730.16,881.725 4730.41,881.725C4730.65,881.725 4730.86,881.533 4730.86,881.299ZM4719.39,880.422C4718.29,879.505 4717.81,879.594 4718.22,880.641C4718.35,881.003 4718.9,881.292 4719.44,881.284L4720.41,881.27L4719.39,880.422ZM4744.5,880.873C4744.5,880.638 4744.42,880.447 4744.31,880.447C4744.21,880.447 4744.01,880.638 4743.86,880.873C4743.72,881.107 4743.8,881.299 4744.05,881.299C4744.3,881.299 4744.5,881.107 4744.5,880.873ZM4724.04,879.772C4724.04,879.077 4723.84,878.741 4723.5,878.858C4723.21,878.961 4723.02,879.345 4723.09,879.712C4723.15,880.08 4722.86,880.469 4722.45,880.577C4721.97,880.702 4722.12,880.792 4722.86,880.823C4723.85,880.865 4724.04,880.701 4724.04,879.772ZM4716.36,879.595C4716.36,879.122 4716.08,878.743 4715.72,878.743C4714.95,878.743 4714.9,879.24 4715.6,879.936C4716.28,880.623 4716.36,880.588 4716.36,879.595ZM4748.37,878.568C4748.03,878.157 4748.01,877.88 4748.32,877.691C4748.57,877.539 4748.76,877.187 4748.75,876.908C4748.74,876.629 4748.47,876.755 4748.14,877.187C4747.52,878.009 4747.69,879.169 4748.44,879.169C4748.7,879.169 4748.67,878.931 4748.37,878.568L4748.37,878.568ZM4721.11,877.778C4720.68,877.36 4720.64,877.409 4720.87,878.016C4721.03,878.436 4721.27,878.673 4721.4,878.541C4721.53,878.41 4721.4,878.067 4721.11,877.778ZM4711.46,877.465C4711.31,877.231 4710.97,877.042 4710.69,877.046C4710.38,877.05 4710.44,877.217 4710.82,877.465C4711.64,877.994 4711.79,877.994 4711.46,877.465ZM4740.09,876.867C4740.05,876.304 4739.88,875.932 4739.71,876.041C4739.25,876.319 4739.31,877.891 4739.77,877.891C4739.98,877.891 4740.12,877.431 4740.09,876.867L4740.09,876.867ZM4713.61,875.733C4714.05,875.026 4713.65,874.928 4713.04,875.592C4712.74,875.919 4712.68,876.188 4712.91,876.188C4713.14,876.188 4713.45,875.983 4713.61,875.733ZM4709.75,874.91C4709.9,874.676 4709.61,874.484 4709.11,874.484C4708.62,874.484 4708.33,874.676 4708.48,874.91C4708.62,875.144 4708.91,875.336 4709.11,875.336C4709.32,875.336 4709.61,875.144 4709.75,874.91ZM4705.96,873.701C4705.93,872.77 4705.74,872.536 4705.17,872.686C4704.31,872.908 4704.16,874.307 4704.96,874.628C4705.91,875.013 4706.01,874.926 4705.96,873.701ZM4712.1,874.484C4712.1,874.25 4712.01,874.058 4711.91,874.058C4711.81,874.058 4711.6,874.25 4711.46,874.484C4711.31,874.718 4711.4,874.91 4711.65,874.91C4711.9,874.91 4712.1,874.718 4712.1,874.484ZM4744.08,874.101C4744.08,873.643 4741.9,872.688 4741.58,873.006C4741.24,873.344 4743.31,874.905 4743.74,874.638C4743.93,874.526 4744.08,874.284 4744.08,874.101ZM4749,874.52C4748.87,874.306 4748.96,874.033 4749.2,873.913C4749.44,873.794 4749.41,873.742 4749.12,873.797C4748.45,873.929 4748.12,874.91 4748.76,874.91C4749.02,874.91 4749.13,874.735 4749,874.52L4749,874.52ZM4718.07,873.632C4718.07,873.398 4718.39,873.206 4718.78,873.206C4719.17,873.206 4719.37,873.087 4719.23,872.942C4718.84,872.559 4716.79,873.147 4716.79,873.64C4716.79,873.87 4717.08,874.058 4717.43,874.058C4717.78,874.058 4718.07,873.866 4718.07,873.632ZM4714.09,872.117C4714.23,871.752 4714.6,871.554 4714.93,871.678C4715.25,871.801 4715.51,871.716 4715.51,871.489C4715.51,870.663 4713.48,871.058 4713.25,871.928C4712.99,872.927 4713.71,873.09 4714.09,872.117ZM4712.53,872.187C4712.53,872.095 4712.24,871.909 4711.89,871.774C4711.53,871.64 4711.25,871.715 4711.25,871.942C4711.25,872.169 4711.53,872.354 4711.89,872.354C4712.24,872.354 4712.53,872.279 4712.53,872.187ZM4742.37,871.954C4742.37,871.451 4741.54,870.913 4741.23,871.219C4740.93,871.524 4741.47,872.354 4741.97,872.354C4742.19,872.354 4742.37,872.174 4742.37,871.954ZM4745.08,871.276C4744.94,870.932 4744.67,870.651 4744.46,870.651C4744.02,870.651 4743.94,871.653 4744.35,872.059C4744.8,872.513 4745.33,871.943 4745.08,871.276ZM4746.94,872.097C4746.8,871.955 4746.44,871.94 4746.13,872.063C4745.79,872.199 4745.89,872.3 4746.39,872.321C4746.84,872.339 4747.09,872.239 4746.94,872.097L4746.94,872.097ZM4707.7,869.719C4707.56,869.379 4707.46,869.48 4707.44,869.976C4707.42,870.425 4707.52,870.677 4707.67,870.535C4707.81,870.394 4707.82,870.026 4707.7,869.719L4707.7,869.719ZM4750.47,870.048C4750.19,869.772 4749.9,869.772 4749.62,870.048C4749.35,870.324 4749.49,870.468 4750.05,870.468C4750.6,870.468 4750.74,870.324 4750.47,870.048ZM4715.07,869.053C4715.05,868.095 4713.96,866.645 4713.64,867.158C4713.36,867.612 4714.29,869.791 4714.76,869.795C4714.94,869.797 4715.08,869.463 4715.07,869.053ZM4709.75,867.666C4709.61,867.433 4709.31,867.243 4709.09,867.243C4708.62,867.243 4708.55,868.662 4708.98,869.101C4709.38,869.501 4710.08,868.198 4709.75,867.666ZM4746.42,868.947C4746.57,868.713 4746.48,868.521 4746.23,868.521C4745.98,868.521 4745.78,868.713 4745.78,868.947C4745.78,869.181 4745.87,869.373 4745.97,869.373C4746.07,869.373 4746.28,869.181 4746.42,868.947ZM4712.94,868.415C4712.94,868.122 4712.77,867.622 4712.57,867.304C4712.1,866.558 4711.57,867.345 4711.93,868.27C4712.24,869.073 4712.95,869.175 4712.94,868.415ZM4753.45,866.806C4752.42,866.153 4752.11,866.331 4752.63,867.289C4752.99,867.965 4753.23,868.066 4753.6,867.697C4753.97,867.329 4753.93,867.109 4753.45,866.806ZM4746.85,865.966C4746.7,865.731 4746.36,865.543 4746.08,865.546C4745.77,865.55 4745.82,865.717 4746.21,865.966C4747.03,866.494 4747.17,866.494 4746.85,865.966ZM4709.47,864.102C4709.56,861.853 4708.54,860.563 4708.37,862.702C4708.28,863.756 4708.93,865.966 4709.33,865.966C4709.37,865.966 4709.43,865.127 4709.47,864.102ZM4712.1,865.327C4712.1,864.975 4711.81,864.688 4711.46,864.688C4710.79,864.688 4710.61,865.192 4711.1,865.682C4711.59,866.172 4712.1,865.992 4712.1,865.327ZM4754.52,865.114C4754.67,864.879 4754.48,864.688 4754.1,864.688C4753.72,864.688 4753.52,864.879 4753.67,865.114C4753.81,865.348 4754.01,865.54 4754.1,865.54C4754.19,865.54 4754.38,865.348 4754.52,865.114ZM4713.32,862.583C4712.64,861.057 4712.48,861.011 4711.5,862.09C4710.66,863.015 4711.33,863.802 4712.28,863.012C4712.72,862.647 4712.9,862.755 4713.1,863.489C4713.23,864.011 4713.47,864.313 4713.62,864.161C4713.77,864.009 4713.64,863.299 4713.32,862.583ZM4707.2,861.305C4707.04,860.583 4707.13,859.964 4707.41,859.79C4708.15,859.334 4709.97,859.946 4709.97,860.65C4709.97,860.997 4710.15,861.28 4710.37,861.28C4711.03,861.28 4711.35,860.427 4710.89,859.876C4710.66,859.592 4710.4,858.702 4710.32,857.897C4710.19,856.501 4710.15,856.468 4709.43,857.184C4709.02,857.596 4708.69,857.763 4708.69,857.554C4708.69,857.009 4710.7,855.339 4711,855.636C4711.13,855.773 4711.25,855.662 4711.25,855.389C4711.25,855.115 4710.88,854.892 4710.43,854.892C4709.98,854.892 4709.33,854.785 4708.99,854.654C4708.65,854.522 4708.26,854.72 4708.11,855.102C4707.94,855.551 4708.01,855.684 4708.33,855.487C4708.63,855.302 4708.7,855.375 4708.52,855.678C4708.35,855.948 4707.69,856.175 4707.06,856.182C4706.08,856.194 4706.02,856.257 4706.66,856.629C4707.07,856.868 4707.41,857.449 4707.41,857.919C4707.41,858.39 4707.22,858.657 4706.98,858.512C4706.75,858.367 4706.55,858.404 4706.54,858.593C4706.53,858.783 4706.36,859.743 4706.17,860.728C4705.93,861.973 4705.97,862.491 4706.3,862.431C4706.56,862.384 4706.72,862.729 4706.65,863.197C4706.54,863.988 4706.57,863.994 4707,863.287C4707.26,862.868 4707.35,861.976 4707.2,861.305L4707.2,861.305ZM4752.17,862.335C4751.87,861.978 4751.54,861.774 4751.43,861.881C4751.14,862.176 4751.74,862.984 4752.25,862.984C4752.54,862.984 4752.51,862.74 4752.17,862.335L4752.17,862.335ZM4742.87,860.581C4742.48,860.044 4741.89,859.598 4741.56,859.59C4741.1,859.58 4741.15,859.782 4741.73,860.429C4742.32,861.082 4742.36,861.284 4741.9,861.294C4741.49,861.303 4741.56,861.499 4742.13,861.933C4743.29,862.806 4743.8,861.864 4742.87,860.581ZM4745.93,860.649C4746.08,860.258 4746.45,860.123 4746.9,860.295C4747.41,860.491 4747.53,860.416 4747.3,860.046C4747.12,859.756 4746.72,859.617 4746.4,859.737C4746.09,859.857 4745.77,859.74 4745.68,859.478C4745.4,858.641 4744.57,859.542 4744.81,860.429C4745.07,861.434 4745.59,861.536 4745.93,860.649ZM4712.53,860.028C4712.53,859.807 4712.33,859.509 4712.1,859.364C4711.86,859.219 4711.67,859.399 4711.67,859.765C4711.67,860.13 4711.86,860.429 4712.1,860.429C4712.33,860.429 4712.53,860.248 4712.53,860.028ZM4741.62,857.654C4741.51,857.065 4741.21,856.458 4740.97,856.306C4740.69,856.132 4740.63,856.305 4740.81,856.773C4740.96,857.182 4741.09,857.789 4741.09,858.121C4741.09,858.453 4741.26,858.725 4741.46,858.725C4741.66,858.725 4741.73,858.243 4741.62,857.654ZM4746.42,857.447C4746.28,857.213 4745.93,857.024 4745.65,857.028C4745.35,857.032 4745.4,857.199 4745.78,857.447C4746.6,857.976 4746.75,857.976 4746.42,857.447ZM4743.22,856.671C4743.22,855.674 4741.71,852.762 4741.19,852.762C4740.7,852.762 4740.67,852.893 4741.06,853.36C4741.44,853.819 4741.43,854.002 4741,854.149C4740.59,854.295 4740.63,854.545 4741.2,855.182C4741.61,855.645 4741.94,856.338 4741.94,856.722C4741.94,857.168 4742.18,857.332 4742.58,857.175C4742.94,857.041 4743.22,856.813 4743.22,856.671L4743.22,856.671ZM4748.59,856.322C4748.36,855.73 4748.42,855.708 4748.99,856.176C4749.49,856.591 4749.78,856.608 4750.14,856.244C4750.79,855.593 4750.39,855.271 4748.88,855.228C4747.91,855.2 4747.52,854.918 4747.17,853.977C4746.91,853.309 4746.49,852.762 4746.22,852.762C4745.95,852.762 4745.85,852.954 4745.99,853.188C4746.14,853.422 4746.01,853.626 4745.7,853.641C4745.39,853.656 4745.57,853.841 4746.1,854.053C4746.72,854.3 4747.06,854.799 4747.06,855.446C4747.06,856.604 4747.37,857.021 4748.24,857.021C4748.64,857.021 4748.76,856.771 4748.59,856.322L4748.59,856.322ZM4744.08,855.13C4744.08,855.027 4743.88,854.824 4743.65,854.679C4743.41,854.534 4743.22,854.618 4743.22,854.867C4743.22,855.115 4743.41,855.318 4743.65,855.318C4743.88,855.318 4744.08,855.233 4744.08,855.13ZM4739.81,854.704C4739.81,854.601 4739.62,854.398 4739.39,854.253C4739.15,854.108 4738.96,854.193 4738.96,854.441C4738.96,854.689 4739.15,854.892 4739.39,854.892C4739.62,854.892 4739.81,854.807 4739.81,854.704ZM4749.06,853.608C4748.83,852.141 4748.13,851.838 4748.13,853.209C4748.13,853.927 4748.35,854.466 4748.66,854.466C4748.95,854.466 4749.13,854.08 4749.06,853.608ZM4738.96,853.273C4738.96,853.086 4738.74,852.713 4738.47,852.445C4738.1,852.078 4738.32,851.999 4739.32,852.126C4740.06,852.22 4740.66,852.113 4740.66,851.89C4740.66,851.667 4740.47,851.46 4740.24,851.431C4740,851.402 4739.62,851.354 4739.39,851.325C4738.95,851.27 4738.91,850.823 4739.26,849.912C4739.68,848.827 4739.14,847.863 4738.18,847.968C4737.6,848.032 4737.11,847.784 4736.94,847.33C4736.78,846.922 4736.22,846.149 4735.68,845.613C4734.87,844.804 4734.55,844.718 4733.81,845.112C4733.32,845.373 4732.65,845.483 4732.32,845.355C4731.98,845.227 4731.71,845.286 4731.71,845.485C4731.71,845.685 4732.19,845.94 4732.78,846.052C4733.36,846.164 4733.84,846.079 4733.84,845.863C4733.84,845.648 4734.03,845.59 4734.27,845.735C4734.5,845.879 4734.7,846.376 4734.7,846.838C4734.7,847.703 4734.86,847.806 4737.04,848.29C4738.3,848.571 4738.31,848.584 4737.45,849.284C4736.73,849.872 4736.65,850.213 4736.98,851.271C4737.19,851.974 4737.43,852.789 4737.51,853.082C4737.67,853.66 4738.96,853.831 4738.96,853.273ZM4751.22,852.302C4750.81,852.063 4750.47,851.59 4750.47,851.25C4750.47,850.911 4750.18,850.633 4749.83,850.633C4749.48,850.633 4749.19,850.882 4749.19,851.186C4749.19,852.014 4750.1,852.764 4751.09,852.749C4751.89,852.737 4751.9,852.699 4751.22,852.302ZM4746.25,850.916C4745.88,850.229 4745.34,849.923 4744.49,849.923C4743.81,849.923 4743.36,850.082 4743.48,850.278C4743.6,850.473 4743.95,850.633 4744.25,850.633C4744.55,850.633 4745.15,851.017 4745.57,851.487C4746.55,852.564 4746.95,852.226 4746.25,850.916ZM4742.23,850.846C4742.23,850.494 4742.05,850.207 4741.82,850.207C4741.6,850.207 4741.64,849.935 4741.92,849.602C4742.31,849.123 4742.28,849.017 4741.77,849.093C4740.65,849.257 4740.5,849.744 4741.3,850.63C4742.23,851.653 4742.23,851.653 4742.23,850.846L4742.23,850.846ZM4748.34,849.568C4748.34,849.216 4748.15,848.929 4747.91,848.929C4747.68,848.929 4747.49,849.216 4747.49,849.568C4747.49,849.919 4747.68,850.207 4747.91,850.207C4748.15,850.207 4748.34,849.919 4748.34,849.568ZM4735.55,849.096C4735.55,849.004 4735.26,848.929 4734.91,848.929C4734.56,848.929 4734.27,849.115 4734.27,849.341C4734.27,849.568 4734.56,849.644 4734.91,849.509C4735.26,849.374 4735.55,849.188 4735.55,849.096ZM4748.04,847.225C4747.78,846.235 4747.25,846.114 4746.92,846.971C4746.66,847.656 4746.97,848.077 4747.73,848.077C4748.05,848.077 4748.17,847.739 4748.04,847.225ZM4742.12,847.288C4742.24,847.088 4742.07,846.561 4741.75,846.117C4741.28,845.493 4741.03,845.424 4740.64,845.812C4740.36,846.09 4740.24,846.617 4740.38,846.984C4740.66,847.698 4741.75,847.889 4742.12,847.288ZM4738.87,846.714C4739.6,845.987 4739.51,845.579 4738.64,845.706C4738.23,845.766 4737.83,846.132 4737.76,846.52C4737.59,847.346 4738.15,847.442 4738.87,846.714ZM4736.83,844.695C4736.83,844.24 4736.61,843.737 4736.35,843.576C4735.68,843.158 4735.08,844.314 4735.62,844.975C4736.29,845.771 4736.83,845.644 4736.83,844.695ZM4732.78,843.392C4732.92,843.158 4732.84,842.966 4732.59,842.966C4732.34,842.966 4732.14,843.158 4732.14,843.392C4732.14,843.626 4732.22,843.818 4732.33,843.818C4732.43,843.818 4732.63,843.626 4732.78,843.392ZM4740.24,842.754C4740.24,842.363 4740.44,842.113 4740.7,842.197C4740.95,842.28 4741.15,842.531 4741.15,842.754C4741.15,842.976 4740.95,843.227 4740.7,843.311C4740.44,843.395 4740.24,843.144 4740.24,842.754Z" style="fill-rule:nonzero;"/>
        </g>
    </g>
</svg>
